<svg width="14" height="20" viewBox="0 0 14 20" fill="none" xmlns="http://www.w3.org/2000/svg">
<path fill-rule="evenodd" clip-rule="evenodd" d="M6.70833 2C4.06197 2 1.91667 4.23858 1.91667 7C1.91667 9.86088 3.22986 12.6585 4.62636 14.8062C5.31631 15.8673 6.0075 16.7407 6.52563 17.3479C6.58933 17.4225 6.65034 17.4931 6.70833 17.5594C6.76633 17.4931 6.82734 17.4225 6.89104 17.3479C7.40916 16.7407 8.10035 15.8673 8.79031 14.8062C10.1868 12.6585 11.5 9.86088 11.5 7C11.5 4.23858 9.3547 2 6.70833 2ZM6.70833 19C6.04912 19.7258 6.04891 19.7256 6.04867 19.7254L6.04656 19.7233L6.04191 19.7187L6.02648 19.7032C6.01352 19.6901 5.99524 19.6716 5.97202 19.6478C5.92558 19.6002 5.85929 19.5313 5.776 19.4424C5.60948 19.2647 5.3746 19.0065 5.09416 18.6779C4.53416 18.0216 3.78785 17.0788 3.04031 15.9291C1.5618 13.6552 0 10.4528 0 7C0 3.13401 3.00342 0 6.70833 0C10.4132 0 13.4167 3.13401 13.4167 7C13.4167 10.4528 11.8549 13.6552 10.3764 15.9291C9.62881 17.0788 8.8825 18.0216 8.3225 18.6779C8.04207 19.0065 7.80719 19.2647 7.64067 19.4424C7.55737 19.5313 7.49109 19.6002 7.44465 19.6478C7.42142 19.6716 7.40315 19.6901 7.39018 19.7032L7.37476 19.7187L7.37011 19.7233L7.36857 19.7248C7.36833 19.725 7.36755 19.7258 6.70833 19ZM6.70833 19L7.36755 19.7258C6.99789 20.0914 6.41833 20.091 6.04867 19.7254L6.70833 19ZM6.70833 6C6.17906 6 5.75 6.44772 5.75 7C5.75 7.55228 6.17906 8 6.70833 8C7.23761 8 7.66667 7.55228 7.66667 7C7.66667 6.44772 7.23761 6 6.70833 6ZM3.83333 7C3.83333 5.34315 5.12051 4 6.70833 4C8.29615 4 9.58333 5.34315 9.58333 7C9.58333 8.65685 8.29615 10 6.70833 10C5.12051 10 3.83333 8.65685 3.83333 7Z" fill="#828ABA"/>
</svg>
