<svg width="62" height="49" viewBox="0 0 62 49" fill="none" xmlns="http://www.w3.org/2000/svg">
<g filter="url(#filter0_d_0_1)">
<path fill-rule="evenodd" clip-rule="evenodd" d="M14.0248 26.7135L28.4022 7.74523L29.3423 8.08606L14.9649 27.0543L14.0248 26.7135ZM41.2967 8.93769L26.9193 27.906L27.8594 28.2468L42.2368 9.27853L41.2967 8.93769ZM17.5386 30.4215L31.9159 11.4533L32.8561 11.7941L18.4787 30.7624L17.5386 30.4215ZM4.98254 33.2071L19.3599 14.2388L20.3 14.5797L5.92266 33.5479L4.98254 33.2071ZM40.2893 15.8925L25.912 34.8608L26.8521 35.2016L41.2295 16.2334L40.2893 15.8925Z" fill="#1730FA"/>
</g>
<g filter="url(#filter1_d_0_1)">
<path fill-rule="evenodd" clip-rule="evenodd" d="M34.1373 33.6397L45.4189 18.7558L46.359 19.0967L35.0775 33.9806L34.1373 33.6397ZM55.5369 19.6915L44.2553 34.5754L45.1955 34.9162L56.477 20.0323L55.5369 19.6915ZM36.8945 36.5494L48.176 21.6654L49.1162 22.0063L37.8346 36.8902L36.8945 36.5494ZM27.0421 38.7352L38.3237 23.8512L39.2638 24.1921L27.9822 39.076L27.0421 38.7352ZM54.7464 25.1488L43.4649 40.0327L44.405 40.3735L55.6866 25.4896L54.7464 25.1488Z" fill="#1730FA"/>
</g>
<g filter="url(#filter2_di_0_1)">
<path fill-rule="evenodd" clip-rule="evenodd" d="M36.691 24.5251C37.8224 24.506 38.9104 24.4584 39.9346 24.3859C40.204 24.4834 40.4819 24.5344 40.7661 24.5344C41.1988 24.5344 41.6172 24.4161 42.0129 24.1956C42.4146 24.1496 42.8015 24.0995 43.1719 24.0455C43.7148 24.3601 44.3137 24.5345 44.943 24.5345C47.4057 24.5345 49.4022 21.8639 49.4022 18.5697C49.4022 15.2754 47.4057 12.6049 44.943 12.6049C44.9168 12.6049 44.8907 12.6052 44.8646 12.6058C44.182 9.56037 42.6039 7.4278 40.7661 7.4278C40.4359 7.4278 40.1141 7.49663 39.8044 7.62721C38.8416 3.89016 36.954 1.35053 34.7829 1.35053C33.8154 1.35053 32.9043 1.85479 32.1061 2.74455C31.2766 1.02674 30.2254 0 29.0819 0C26.6774 0 24.6813 4.53928 24.2951 10.4976C22.6814 11.4518 21.5182 14.151 21.5182 17.3316C21.5182 21.3096 23.3377 24.5344 25.5823 24.5344C26.0987 24.5344 26.5927 24.3637 27.0471 24.0523C27.666 24.7952 28.3553 25.2097 29.0819 25.2097C29.7016 25.2097 30.2943 24.9081 30.8392 24.3583C31.4718 24.4075 32.1305 24.4471 32.8102 24.4763C33.4249 24.9506 34.0894 25.2097 34.7829 25.2097C35.4521 25.2097 36.0944 24.9684 36.691 24.5251Z" fill="#D9D9D9"/>
</g>
<g filter="url(#filter3_di_0_1)">
<path fill-rule="evenodd" clip-rule="evenodd" d="M45.2888 22.2209C46.4202 22.2113 47.5081 22.1874 48.5323 22.1511C48.8017 22.2 49.0797 22.2255 49.3638 22.2255C49.7966 22.2255 50.215 22.1662 50.6107 22.0556C51.0124 22.0325 51.3993 22.0074 51.7697 21.9803C52.3126 22.1381 52.9115 22.2256 53.5408 22.2256C56.0035 22.2256 58 20.8862 58 19.234C58 17.5817 56.0035 16.2423 53.5408 16.2423C53.5146 16.2423 53.4884 16.2425 53.4624 16.2428C52.7798 14.7154 51.2016 13.6459 49.3638 13.6459C49.0337 13.6459 48.7119 13.6804 48.4022 13.7459C47.4394 11.8716 45.5518 10.5978 43.3806 10.5978C42.4132 10.5978 41.502 10.8507 40.7039 11.297C39.8743 10.4354 38.8232 9.92047 37.6796 9.92047C35.2752 9.92047 33.279 12.1971 32.8929 15.1855C31.2792 15.6641 30.116 17.0178 30.116 18.6131C30.116 20.6082 31.9355 22.2256 34.18 22.2256C34.6965 22.2256 35.1905 22.1399 35.6449 21.9838C36.2638 22.3563 36.9531 22.5642 37.6796 22.5642C38.2994 22.5642 38.8921 22.413 39.437 22.1372C40.0696 22.1619 40.7283 22.1818 41.408 22.1964C42.0227 22.4343 42.6872 22.5642 43.3806 22.5642C44.0499 22.5642 44.6922 22.4432 45.2888 22.2209Z" fill="#D9D9D9"/>
</g>
<g filter="url(#filter4_di_0_1)">
<path fill-rule="evenodd" clip-rule="evenodd" d="M25.4577 18.177C26.3434 18.1675 27.1951 18.1437 27.9969 18.1076C28.2077 18.1562 28.4251 18.1815 28.6474 18.1815C28.9861 18.1815 29.3134 18.1226 29.623 18.0128C29.9375 17.9898 30.2405 17.9648 30.5305 17.9379C30.9555 18.0947 31.4242 18.1816 31.9167 18.1816C33.8443 18.1816 35.407 16.8505 35.407 15.2084C35.407 13.5664 33.8443 12.2352 31.9167 12.2352C31.8962 12.2352 31.8758 12.2354 31.8554 12.2357C31.3212 10.7177 30.0859 9.65465 28.6474 9.65465C28.389 9.65465 28.1371 9.68897 27.8947 9.75406C27.1411 7.89131 25.6636 6.62542 23.9643 6.62542C23.2071 6.62542 22.4939 6.87677 21.8692 7.32028C21.2199 6.46404 20.3971 5.95227 19.5021 5.95227C17.6201 5.95227 16.0577 8.2149 15.7554 11.1849C14.4924 11.6605 13.5819 13.0059 13.5819 14.5913C13.5819 16.5742 15.0061 18.1816 16.7629 18.1816C17.1671 18.1816 17.5537 18.0965 17.9095 17.9413C18.3938 18.3116 18.9334 18.5182 19.5021 18.5182C19.9872 18.5182 20.451 18.3679 20.8776 18.0939C21.3728 18.1184 21.8883 18.1381 22.4204 18.1526C22.9015 18.3891 23.4216 18.5182 23.9643 18.5182C24.4881 18.5182 24.9908 18.3979 25.4577 18.177Z" fill="#D9D9D9"/>
</g>
<defs>
<filter id="filter0_d_0_1" x="0.982544" y="7.74522" width="45.2543" height="35.4564" filterUnits="userSpaceOnUse" color-interpolation-filters="sRGB">
<feFlood flood-opacity="0" result="BackgroundImageFix"/>
<feColorMatrix in="SourceAlpha" type="matrix" values="0 0 0 0 0 0 0 0 0 0 0 0 0 0 0 0 0 0 127 0" result="hardAlpha"/>
<feOffset dy="4"/>
<feGaussianBlur stdDeviation="2"/>
<feComposite in2="hardAlpha" operator="out"/>
<feColorMatrix type="matrix" values="0 0 0 0 0 0 0 0 0 0 0 0 0 0 0 0 0 0 0.25 0"/>
<feBlend mode="normal" in2="BackgroundImageFix" result="effect1_dropShadow_0_1"/>
<feBlend mode="normal" in="SourceGraphic" in2="effect1_dropShadow_0_1" result="shape"/>
</filter>
<filter id="filter1_d_0_1" x="23.0421" y="18.7558" width="37.4349" height="29.6177" filterUnits="userSpaceOnUse" color-interpolation-filters="sRGB">
<feFlood flood-opacity="0" result="BackgroundImageFix"/>
<feColorMatrix in="SourceAlpha" type="matrix" values="0 0 0 0 0 0 0 0 0 0 0 0 0 0 0 0 0 0 127 0" result="hardAlpha"/>
<feOffset dy="4"/>
<feGaussianBlur stdDeviation="2"/>
<feComposite in2="hardAlpha" operator="out"/>
<feColorMatrix type="matrix" values="0 0 0 0 0 0 0 0 0 0 0 0 0 0 0 0 0 0 0.25 0"/>
<feBlend mode="normal" in2="BackgroundImageFix" result="effect1_dropShadow_0_1"/>
<feBlend mode="normal" in="SourceGraphic" in2="effect1_dropShadow_0_1" result="shape"/>
</filter>
<filter id="filter2_di_0_1" x="17.5182" y="0" width="35.884" height="33.2097" filterUnits="userSpaceOnUse" color-interpolation-filters="sRGB">
<feFlood flood-opacity="0" result="BackgroundImageFix"/>
<feColorMatrix in="SourceAlpha" type="matrix" values="0 0 0 0 0 0 0 0 0 0 0 0 0 0 0 0 0 0 127 0" result="hardAlpha"/>
<feOffset dy="4"/>
<feGaussianBlur stdDeviation="2"/>
<feComposite in2="hardAlpha" operator="out"/>
<feColorMatrix type="matrix" values="0 0 0 0 0 0 0 0 0 0 0 0 0 0 0 0 0 0 0.25 0"/>
<feBlend mode="normal" in2="BackgroundImageFix" result="effect1_dropShadow_0_1"/>
<feBlend mode="normal" in="SourceGraphic" in2="effect1_dropShadow_0_1" result="shape"/>
<feColorMatrix in="SourceAlpha" type="matrix" values="0 0 0 0 0 0 0 0 0 0 0 0 0 0 0 0 0 0 127 0" result="hardAlpha"/>
<feOffset dy="1"/>
<feGaussianBlur stdDeviation="2"/>
<feComposite in2="hardAlpha" operator="arithmetic" k2="-1" k3="1"/>
<feColorMatrix type="matrix" values="0 0 0 0 0 0 0 0 0 0 0 0 0 0 0 0 0 0 0.25 0"/>
<feBlend mode="normal" in2="shape" result="effect2_innerShadow_0_1"/>
</filter>
<filter id="filter3_di_0_1" x="26.116" y="9.92047" width="35.884" height="20.6438" filterUnits="userSpaceOnUse" color-interpolation-filters="sRGB">
<feFlood flood-opacity="0" result="BackgroundImageFix"/>
<feColorMatrix in="SourceAlpha" type="matrix" values="0 0 0 0 0 0 0 0 0 0 0 0 0 0 0 0 0 0 127 0" result="hardAlpha"/>
<feOffset dy="4"/>
<feGaussianBlur stdDeviation="2"/>
<feComposite in2="hardAlpha" operator="out"/>
<feColorMatrix type="matrix" values="0 0 0 0 0 0 0 0 0 0 0 0 0 0 0 0 0 0 0.25 0"/>
<feBlend mode="normal" in2="BackgroundImageFix" result="effect1_dropShadow_0_1"/>
<feBlend mode="normal" in="SourceGraphic" in2="effect1_dropShadow_0_1" result="shape"/>
<feColorMatrix in="SourceAlpha" type="matrix" values="0 0 0 0 0 0 0 0 0 0 0 0 0 0 0 0 0 0 127 0" result="hardAlpha"/>
<feOffset dy="1"/>
<feGaussianBlur stdDeviation="2"/>
<feComposite in2="hardAlpha" operator="arithmetic" k2="-1" k3="1"/>
<feColorMatrix type="matrix" values="0 0 0 0 0 0 0 0 0 0 0 0 0 0 0 0 0 0 0.25 0"/>
<feBlend mode="normal" in2="shape" result="effect2_innerShadow_0_1"/>
</filter>
<filter id="filter4_di_0_1" x="9.58191" y="5.95227" width="29.8251" height="20.5659" filterUnits="userSpaceOnUse" color-interpolation-filters="sRGB">
<feFlood flood-opacity="0" result="BackgroundImageFix"/>
<feColorMatrix in="SourceAlpha" type="matrix" values="0 0 0 0 0 0 0 0 0 0 0 0 0 0 0 0 0 0 127 0" result="hardAlpha"/>
<feOffset dy="4"/>
<feGaussianBlur stdDeviation="2"/>
<feComposite in2="hardAlpha" operator="out"/>
<feColorMatrix type="matrix" values="0 0 0 0 0 0 0 0 0 0 0 0 0 0 0 0 0 0 0.25 0"/>
<feBlend mode="normal" in2="BackgroundImageFix" result="effect1_dropShadow_0_1"/>
<feBlend mode="normal" in="SourceGraphic" in2="effect1_dropShadow_0_1" result="shape"/>
<feColorMatrix in="SourceAlpha" type="matrix" values="0 0 0 0 0 0 0 0 0 0 0 0 0 0 0 0 0 0 127 0" result="hardAlpha"/>
<feOffset dy="1"/>
<feGaussianBlur stdDeviation="2"/>
<feComposite in2="hardAlpha" operator="arithmetic" k2="-1" k3="1"/>
<feColorMatrix type="matrix" values="0 0 0 0 0 0 0 0 0 0 0 0 0 0 0 0 0 0 0.25 0"/>
<feBlend mode="normal" in2="shape" result="effect2_innerShadow_0_1"/>
</filter>
</defs>
</svg>
