<svg width="63" height="37" viewBox="0 0 63 37" fill="none" xmlns="http://www.w3.org/2000/svg">
<g filter="url(#filter0_i_0_1)">
<ellipse cx="15.5" cy="14.5" rx="15.5" ry="14.5" fill="#EAFCA3"/>
</g>
<g filter="url(#filter1_di_0_1)">
<path fill-rule="evenodd" clip-rule="evenodd" d="M36.1588 28.421C38.1811 28.4049 40.1259 28.3646 41.9567 28.3033C42.4382 28.3858 42.9349 28.4289 43.4428 28.4289C44.2163 28.4289 44.964 28.3289 45.6712 28.1423C46.3893 28.1034 47.081 28.061 47.7433 28.0153C48.7136 28.2814 49.7838 28.4289 50.9086 28.4289C55.3104 28.4289 58.8788 26.17 58.8788 23.3836C58.8788 20.5971 55.3104 18.3383 50.9086 18.3383C50.8617 18.3383 50.815 18.3385 50.7684 18.339C49.5483 15.7631 46.7276 13.9593 43.4428 13.9593C42.8527 13.9593 42.2776 14.0175 41.724 14.128C40.0032 10.967 36.6292 8.81877 32.7486 8.81877C31.0194 8.81877 29.3908 9.2453 27.9642 9.99792C26.4815 8.54495 24.6026 7.67651 22.5588 7.67651C18.2611 7.67651 14.6932 11.5161 14.003 16.556C11.1188 17.3631 9.03967 19.6461 9.03967 22.3365C9.03967 25.7012 12.2919 28.4289 16.3037 28.4289C17.2268 28.4289 18.1097 28.2845 18.922 28.0211C20.0281 28.6495 21.2601 29 22.5588 29C23.6665 29 24.7258 28.7449 25.6997 28.28C26.8306 28.3216 28.0081 28.3551 29.2232 28.3797C30.3217 28.7809 31.5093 29 32.7486 29C33.9446 29 35.0925 28.7959 36.1588 28.421Z" fill="#D9D9D9"/>
</g>
<defs>
<filter id="filter0_i_0_1" x="0" y="0" width="34" height="33" filterUnits="userSpaceOnUse" color-interpolation-filters="sRGB">
<feFlood flood-opacity="0" result="BackgroundImageFix"/>
<feBlend mode="normal" in="SourceGraphic" in2="BackgroundImageFix" result="shape"/>
<feColorMatrix in="SourceAlpha" type="matrix" values="0 0 0 0 0 0 0 0 0 0 0 0 0 0 0 0 0 0 127 0" result="hardAlpha"/>
<feOffset dx="3" dy="4"/>
<feGaussianBlur stdDeviation="2"/>
<feComposite in2="hardAlpha" operator="arithmetic" k2="-1" k3="1"/>
<feColorMatrix type="matrix" values="0 0 0 0 0.970833 0 0 0 0 0.889688 0 0 0 0 0.159379 0 0 0 0.25 0"/>
<feBlend mode="normal" in2="shape" result="effect1_innerShadow_0_1"/>
</filter>
<filter id="filter1_di_0_1" x="5.03967" y="7.67651" width="57.8391" height="29.3235" filterUnits="userSpaceOnUse" color-interpolation-filters="sRGB">
<feFlood flood-opacity="0" result="BackgroundImageFix"/>
<feColorMatrix in="SourceAlpha" type="matrix" values="0 0 0 0 0 0 0 0 0 0 0 0 0 0 0 0 0 0 127 0" result="hardAlpha"/>
<feOffset dy="4"/>
<feGaussianBlur stdDeviation="2"/>
<feComposite in2="hardAlpha" operator="out"/>
<feColorMatrix type="matrix" values="0 0 0 0 0 0 0 0 0 0 0 0 0 0 0 0 0 0 0.25 0"/>
<feBlend mode="normal" in2="BackgroundImageFix" result="effect1_dropShadow_0_1"/>
<feBlend mode="normal" in="SourceGraphic" in2="effect1_dropShadow_0_1" result="shape"/>
<feColorMatrix in="SourceAlpha" type="matrix" values="0 0 0 0 0 0 0 0 0 0 0 0 0 0 0 0 0 0 127 0" result="hardAlpha"/>
<feOffset dy="1"/>
<feGaussianBlur stdDeviation="2"/>
<feComposite in2="hardAlpha" operator="arithmetic" k2="-1" k3="1"/>
<feColorMatrix type="matrix" values="0 0 0 0 0 0 0 0 0 0 0 0 0 0 0 0 0 0 0.25 0"/>
<feBlend mode="normal" in2="shape" result="effect2_innerShadow_0_1"/>
</filter>
</defs>
</svg>
