<svg width="15" height="20" viewBox="0 0 15 20" fill="none" xmlns="http://www.w3.org/2000/svg">
<path opacity="0.8" fill-rule="evenodd" clip-rule="evenodd" d="M4.14609 11.7169C5.91319 11.7169 7.06983 10.6004 7.39113 10.0572C7.71242 9.5141 8.38713 7.99933 7.39113 6.47249C7.30409 6.33906 7.22183 6.2131 7.14389 6.09375C5.98498 4.31918 5.7794 4.00438 4.98145 2.29026C4.58047 1.4289 4.14609 0 4.14609 0C4.14609 0 3.75952 1.4206 3.40713 2.29026C2.70774 4.01626 1.44725 5.77545 0.933188 6.47249C-0.0949405 7.86656 0.602772 9.3934 0.933188 10.0572C1.2636 10.7211 2.379 11.7169 4.14609 11.7169ZM10.9187 19.4839C12.6858 19.4839 13.8424 18.3674 14.1637 17.8242C14.485 17.2811 15.1597 15.7663 14.1637 14.2395C14.0767 14.1061 13.9944 13.9801 13.9165 13.8607C12.7576 12.0862 12.552 11.7714 11.7541 10.0573C11.3531 9.1959 10.9187 7.76699 10.9187 7.76699C10.9187 7.76699 10.5321 9.1876 10.1797 10.0573C9.48035 11.7833 8.21986 13.5424 7.7058 14.2395C6.67767 15.6336 7.37538 17.1604 7.7058 17.8242C8.03621 18.4881 9.1516 19.4839 10.9187 19.4839Z" fill="#788FD6"/>
</svg>
