<svg width="32" height="23" viewBox="0 0 32 23" fill="none" xmlns="http://www.w3.org/2000/svg">
<path opacity="0.4" fill-rule="evenodd" clip-rule="evenodd" d="M0.438535 7.4405C0.877275 7.68031 0.877218 7.68041 0.87718 7.68048L0.877198 7.68045L0.877573 7.67976L0.879672 7.67596L0.889224 7.65882C0.897954 7.64323 0.911384 7.61946 0.92938 7.58816C0.965378 7.52556 1.01961 7.43293 1.09101 7.3156C1.23389 7.08082 1.44509 6.74785 1.71609 6.35922C2.25973 5.57958 3.03625 4.58714 3.97651 3.71423C4.92069 2.83767 6.00004 2.1097 7.14708 1.81281C8.27181 1.52168 9.49133 1.63584 10.7763 2.49616C12.0158 3.32599 13.1447 4.47884 14.2485 5.73986C14.6807 6.23366 15.1158 6.7524 15.5516 7.27212L15.5516 7.27214L15.5516 7.27215L15.5517 7.27217L15.5517 7.27228C16.2059 8.05226 16.8618 8.83444 17.5129 9.53783C18.6107 10.7237 19.7752 11.78 21.0812 12.398C22.4089 13.0263 23.8677 13.1939 25.5082 12.6296C26.826 12.1763 27.8841 11.6403 28.8584 10.8606C29.8285 10.0842 30.6941 9.0832 31.6477 7.72806L30.8299 7.15256C29.9043 8.46777 29.1013 9.38536 28.2336 10.0798C27.3701 10.7709 26.4212 11.258 25.1829 11.684C23.8058 12.1577 22.617 12.0184 21.509 11.4941C20.3792 10.9595 19.3197 10.0176 18.2468 8.85851C17.6038 8.16391 16.9842 7.42448 16.3488 6.66608C15.9113 6.14398 15.4663 5.61288 15.001 5.08122C13.8824 3.80336 12.684 2.56992 11.3327 1.66521C9.80409 0.641804 8.28981 0.48407 6.8965 0.844712C5.52549 1.19958 4.30254 2.04704 3.29613 2.98136C2.28579 3.91934 1.46342 4.97325 0.89582 5.78724C0.611194 6.19542 0.388689 6.54609 0.236761 6.79574C0.160761 6.92063 0.102317 7.02041 0.0624893 7.08967C0.0425727 7.1243 0.0273026 7.15132 0.0168114 7.17005L0.00467211 7.19184L0.0013195 7.19791L0.00032774 7.19972L3.66985e-06 7.20031C-0.000110533 7.20052 -0.000205662 7.20069 0.438535 7.4405ZM0.438535 17.4541C0.877275 17.6939 0.877218 17.694 0.87718 17.6941L0.877198 17.6941L0.877573 17.6934L0.879672 17.6896L0.889224 17.6724C0.897954 17.6568 0.911384 17.6331 0.92938 17.6018C0.965378 17.5392 1.01961 17.4465 1.09101 17.3292C1.23389 17.0944 1.44509 16.7615 1.71609 16.3728C2.25973 15.5932 3.03625 14.6007 3.97651 13.7278C4.92069 12.8513 6.00004 12.1233 7.14708 11.8264C8.27181 11.5353 9.49133 11.6494 10.7763 12.5098C12.0158 13.3396 13.1447 14.4924 14.2485 15.7535C14.6807 16.2472 15.1156 16.7659 15.5514 17.2855L15.5515 17.2856L15.5515 17.2856L15.5516 17.2858C16.2058 18.0658 16.8618 18.848 17.5129 19.5514C18.6107 20.7373 19.7752 21.7936 21.0812 22.4116C22.4089 23.0399 23.8677 23.2075 25.5082 22.6432C26.826 22.1899 27.8841 21.6539 28.8584 20.8742C29.8285 20.0978 30.6941 19.0968 31.6477 17.7417L30.8299 17.1662C29.9043 18.4814 29.1013 19.399 28.2336 20.0934C27.3701 20.7845 26.4212 21.2716 25.1829 21.6976C23.8058 22.1713 22.617 22.0321 21.509 21.5077C20.3792 20.9731 19.3197 20.0312 18.2468 18.8721C17.6038 18.1775 16.9842 17.4381 16.3488 16.6797C15.9113 16.1576 15.4663 15.6265 15.001 15.0948C13.8824 13.817 12.684 12.5835 11.3327 11.6788C9.80409 10.6554 8.28981 10.4977 6.8965 10.8583C5.52549 11.2132 4.30254 12.0606 3.29613 12.995C2.28579 13.9329 1.46342 14.9869 0.89582 15.8008C0.611194 16.209 0.388689 16.5597 0.236761 16.8093C0.160761 16.9342 0.102317 17.034 0.0624893 17.1033C0.0425727 17.1379 0.0273026 17.1649 0.0168114 17.1837L0.00467211 17.2054L0.0013195 17.2115L0.00032774 17.2133L3.66985e-06 17.2139C-0.000110533 17.2141 -0.000205662 17.2143 0.438535 17.4541ZM0.87718 11.1509C0.877218 11.1509 0.877275 11.1508 0.438535 10.9109C-0.000205662 10.6711 -0.000110533 10.671 3.66985e-06 10.6708L0.00032774 10.6702L0.0013195 10.6684L0.00467211 10.6623L0.0168114 10.6405C0.0273026 10.6218 0.0425727 10.5948 0.0624893 10.5601C0.102317 10.4909 0.160761 10.3911 0.236761 10.2662C0.388689 10.0165 0.611194 9.66587 0.89582 9.25769C1.46342 8.4437 2.28579 7.38979 3.29613 6.45181C4.30254 5.51749 5.52549 4.67003 6.8965 4.31516C8.28981 3.95452 9.80409 4.11225 11.3327 5.13565C12.684 6.04037 13.8824 7.27381 15.001 8.55167C15.4663 9.08333 15.9113 9.61443 16.3488 10.1365C16.9842 10.8949 17.6038 11.6344 18.2468 12.329C19.3197 13.488 20.3792 14.43 21.509 14.9646C22.617 15.4889 23.8058 15.6281 25.1829 15.1544C26.4212 14.7285 27.3701 14.2413 28.2336 13.5503C29.1013 12.8558 29.9043 11.9382 30.8299 10.623L31.6477 11.1985C30.6941 12.5536 29.8285 13.5546 28.8584 14.331C27.8841 15.1108 26.826 15.6467 25.5082 16.1C23.8677 16.6644 22.4089 16.4967 21.0812 15.8685C19.7752 15.2505 18.6107 14.1941 17.5129 13.0083C16.8618 12.3048 16.2058 11.5226 15.5516 10.7426L15.5516 10.7426L15.5515 10.7425C15.1157 10.2228 14.6807 9.70408 14.2485 9.21031C13.1447 7.94929 12.0158 6.79643 10.7763 5.96661C9.49133 5.10629 8.27181 4.99213 7.14708 5.28326C6.00004 5.58015 4.92069 6.30812 3.97651 7.18468C3.03625 8.05759 2.25973 9.05003 1.71609 9.82967C1.44509 10.2183 1.23389 10.5513 1.09101 10.786C1.01961 10.9034 0.965378 10.996 0.92938 11.0586C0.911384 11.0899 0.897954 11.1137 0.889224 11.1293L0.879672 11.1464L0.877573 11.1502L0.877198 11.1509L0.87718 11.1509ZM0.438535 13.5138C0.877275 13.7536 0.877218 13.7537 0.87718 13.7538L0.877198 13.7537L0.877573 13.753L0.879672 13.7492L0.889224 13.7321C0.897954 13.7165 0.911384 13.6927 0.92938 13.6615C0.965378 13.5989 1.01961 13.5062 1.09101 13.3889C1.23389 13.1541 1.44509 12.8211 1.71609 12.4325C2.25973 11.6529 3.03625 10.6604 3.97651 9.78751C4.92069 8.91095 6.00004 8.18299 7.14708 7.88609C8.27181 7.59497 9.49133 7.70912 10.7763 8.56945C12.0158 9.39927 13.1447 10.5521 14.2485 11.8131C14.6807 12.307 15.1158 12.8257 15.5516 13.3454L15.5517 13.3455C16.2058 14.1255 16.8618 14.9077 17.5129 15.6111C18.6107 16.7969 19.7752 17.8533 21.0812 18.4713C22.4089 19.0996 23.8677 19.2672 25.5082 18.7029C26.826 18.2495 27.8841 17.7136 28.8584 16.9338C29.8285 16.1575 30.6941 15.1565 31.6477 13.8013L30.8299 13.2259C29.9043 14.5411 29.1013 15.4586 28.2336 16.1531C27.3701 16.8442 26.4212 17.3313 25.1829 17.7573C23.8058 18.231 22.617 18.0917 21.509 17.5674C20.3792 17.0328 19.3197 16.0909 18.2468 14.9318C17.6038 14.2372 16.9842 13.4978 16.3488 12.7394C15.9113 12.2173 15.4663 11.6862 15.001 11.1545C13.8824 9.87665 12.684 8.64321 11.3327 7.73849C9.80409 6.71509 8.28981 6.55736 6.8965 6.918C5.52549 7.27287 4.30254 8.12032 3.29613 9.05465C2.28579 9.99263 1.46342 11.0465 0.89582 11.8605C0.611194 12.2687 0.388689 12.6194 0.236761 12.869C0.160761 12.9939 0.102317 13.0937 0.0624893 13.163C0.0425727 13.1976 0.0273026 13.2246 0.0168114 13.2433L0.00467211 13.2651L0.0013195 13.2712L0.00032774 13.273L3.66985e-06 13.2736C-0.000110533 13.2738 -0.000205662 13.274 0.438535 13.5138Z" fill="#788FD6"/>
</svg>
