<svg width="21" height="19" viewBox="0 0 21 19" fill="none" xmlns="http://www.w3.org/2000/svg">
<path fill-rule="evenodd" clip-rule="evenodd" d="M4.47582 0.395289C4.79591 0.83513 4.71369 1.46246 4.29217 1.79646C3.27698 2.60088 2.42579 3.60856 1.78843 4.76049C1.5238 5.23878 0.93769 5.40266 0.479327 5.12652C0.0209628 4.85037 -0.136084 4.23878 0.128552 3.76049C0.893382 2.37817 1.91481 1.16896 3.13304 0.203651C3.55455 -0.130352 4.15574 -0.044553 4.47582 0.395289ZM15.6999 0.395289C16.0199 -0.044553 16.6211 -0.130352 17.0426 0.203651C18.2609 1.16896 19.2823 2.37817 20.0471 3.76049C20.3118 4.23878 20.1547 4.85037 19.6964 5.12652C19.238 5.40266 18.6519 5.23878 18.3873 4.76049C17.7499 3.60856 16.8987 2.60088 15.8835 1.79646C15.462 1.46246 15.3798 0.83513 15.6999 0.395289ZM10.0878 2.76052C6.38293 2.76052 3.37951 5.89453 3.37951 9.76052C3.37951 13.6265 6.38293 16.7605 10.0878 16.7605C13.7928 16.7605 16.7962 13.6265 16.7962 9.76052C16.7962 5.89453 13.7928 2.76052 10.0878 2.76052ZM1.46284 9.76052C1.46284 4.78996 5.32439 0.760518 10.0878 0.760518C14.8513 0.760518 18.7128 4.78996 18.7128 9.76052C18.7128 14.7311 14.8513 18.7605 10.0878 18.7605C5.32439 18.7605 1.46284 14.7311 1.46284 9.76052ZM10.0878 4.76052C10.6171 4.76052 11.0462 5.20823 11.0462 5.76052V8.76052H13.9212C14.4504 8.76052 14.8795 9.20823 14.8795 9.76052C14.8795 10.3128 14.4504 10.7605 13.9212 10.7605H10.0878C9.55857 10.7605 9.12951 10.3128 9.12951 9.76052V5.76052C9.12951 5.20823 9.55857 4.76052 10.0878 4.76052Z" fill="#788FD6"/>
</svg>
