<svg width="21" height="35" viewBox="0 0 21 35" fill="none" xmlns="http://www.w3.org/2000/svg">
<path d="M8.73643 1L9.5 29.8378H11.5108H12L11.5108 1H8.73643Z" fill="#8187AB"/>
<path d="M7.32188 1V19.9591C7.32188 19.9591 1.37363 21.5972 1.01532 26.5676C0.639018 31.7873 7.32188 34 7.32188 34H14.0871C14.0871 34 20.3083 31.7892 19.988 26.5676C19.6809 21.5606 14.0871 19.8258 14.0871 19.8258V1H11.5108L12 29.8378H11.5108H9.5L8.73643 1H7.32188Z" fill="#94A0C6" fill-opacity="0.39584"/>
<path d="M8.73643 1H7.32188V19.9591C7.32188 19.9591 1.37363 21.5972 1.01532 26.5676C0.639018 31.7873 7.32188 34 7.32188 34H14.0871C14.0871 34 20.3083 31.7892 19.988 26.5676C19.6809 21.5606 14.0871 19.8258 14.0871 19.8258V1H11.5108M8.73643 1L9.5 29.8378H11.5108H12L11.5108 1M8.73643 1H11.5108" stroke="#788FD6" stroke-width="0.8"/>
<path fill-rule="evenodd" clip-rule="evenodd" d="M13.5732 1.63347H11.2683V1.43347H13.5732V1.63347ZM13.5732 3.5628H11.2683V3.3628H13.5732V3.5628ZM11.2683 4.94902H13.4579V4.74902H11.2683V4.94902ZM11.2683 6.25598H13.4579V6.05598H11.2683V6.25598ZM11.3836 7.80498H13.5732V7.60498H11.3836V7.80498ZM11.3836 9.45078H13.5732V9.25078H11.3836V9.45078ZM13.4579 10.737H11.2683V10.537H13.4579V10.737ZM13.4579 12.2307H11.2683V12.0307H13.4579V12.2307ZM13.5732 14.0009H11.3836V13.8009H13.5732V14.0009ZM13.5732 15.8818H11.3836V15.6818H13.5732V15.8818ZM11.2683 17.1681H13.4579V16.9681H11.2683V17.1681ZM11.2683 18.475H13.4579V18.275H11.2683V18.475ZM11.3836 20.024H13.5732V19.824H11.3836V20.024ZM11.3836 21.6698H13.5732V21.4698H11.3836V21.6698Z" fill="black"/>
</svg>
