<svg width="31" height="27" viewBox="0 0 31 27" fill="none" xmlns="http://www.w3.org/2000/svg">
<path opacity="0.7" fill-rule="evenodd" clip-rule="evenodd" d="M8.13863 16.1849C11.9712 16.1849 14.4798 14.6427 15.1767 13.8924C15.8735 13.1421 17.3369 11.0497 15.1767 8.94066C14.9879 8.75636 14.8095 8.58237 14.6405 8.41751C12.1269 5.96623 11.6811 5.53139 9.9504 3.16362C9.08073 1.97379 8.13863 0 8.13863 0C8.13863 0 7.30019 1.96233 6.5359 3.16362C5.01904 5.5478 2.2852 7.97782 1.17026 8.94066C-1.05961 10.8663 0.453631 12.9754 1.17026 13.8924C1.88689 14.8094 4.30603 16.1849 8.13863 16.1849ZM22.8275 26.9137C26.6601 26.9137 29.1687 25.3715 29.8656 24.6212C30.5624 23.8709 32.0258 21.7785 29.8656 19.6695C29.6768 19.4851 29.4984 19.3112 29.3293 19.1463C26.8158 16.695 26.37 16.2602 24.6393 13.8924C23.7696 12.7026 22.8275 10.7288 22.8275 10.7288C22.8275 10.7288 21.9891 12.6911 21.2248 13.8924C19.7079 16.2766 16.9741 18.7066 15.8592 19.6695C13.6293 21.5951 15.1425 23.7042 15.8592 24.6212C16.5758 25.5382 18.9949 26.9137 22.8275 26.9137Z" fill="#788FD6"/>
</svg>
