<svg width="52" height="36" viewBox="0 0 52 36" fill="none" xmlns="http://www.w3.org/2000/svg">
<g filter="url(#filter0_d_207_12)">
<path d="M10.9386 24.0898C23.2796 19.8021 29.3003 20.3797 39.9888 23.5233C39.9888 23.5233 41.1062 17.5751 38.8715 13.6096C35.9898 8.49591 27.9777 5.99143 22.3911 7.37831C16.8045 8.76519 14.8492 11.9653 12.8939 15.0257C10.9011 18.1447 10.9386 24.0898 10.9386 24.0898Z" fill="#788FD6"/>
<path d="M5.00002 27C7.66971 25.7994 8.56755 24.9135 10.9386 24.0898M47 26C43.176 24.6087 43.2945 24.4955 39.9888 23.5233M10.9386 24.0898C23.2796 19.8021 29.3003 20.3797 39.9888 23.5233M10.9386 24.0898C10.9386 24.0898 10.9011 18.1447 12.8939 15.0257C14.8492 11.9653 16.8045 8.76519 22.3911 7.37831C27.9777 5.99143 35.9898 8.49591 38.8715 13.6096C41.1062 17.5751 39.9888 23.5233 39.9888 23.5233" stroke="#788FD6"/>
</g>
<g filter="url(#filter1_d_207_12)">
<path fill-rule="evenodd" clip-rule="evenodd" d="M26.5 0V9H25.5V0H26.5ZM45.2965 12.7093L37.453 16.7407L36.9959 15.8513L44.8394 11.8199L45.2965 12.7093ZM35.2444 12.804L40.8819 6.31763L40.1272 5.66163L34.4896 12.148L35.2444 12.804ZM17.9706 11.9476L12.3629 5.37971L11.6024 6.02904L17.21 12.597L17.9706 11.9476ZM9.41568 11.9793L15.3438 15.4019L14.8438 16.268L8.91568 12.8453L9.41568 11.9793ZM13.0479 19.2452L4.71648 16.636L4.41762 17.5902L12.749 20.1995L13.0479 19.2452ZM47.1977 17.2073L39.0239 19.8167L39.328 20.7693L47.5018 18.16L47.1977 17.2073ZM32.863 3.9933L30.5218 10.4257L29.5821 10.0837L31.9233 3.65128L32.863 3.9933ZM19.6836 3.9931L22.0248 10.4255L21.0851 10.7675L18.7439 4.33512L19.6836 3.9931Z" fill="#788FD6"/>
<path fill-rule="evenodd" clip-rule="evenodd" d="M26.5 0V9H25.5V0H26.5ZM45.2965 12.7093L37.453 16.7407L36.9959 15.8513L44.8394 11.8199L45.2965 12.7093ZM35.2444 12.804L40.8819 6.31763L40.1272 5.66163L34.4896 12.148L35.2444 12.804ZM17.9706 11.9476L12.3629 5.37971L11.6024 6.02904L17.21 12.597L17.9706 11.9476ZM9.41568 11.9793L15.3438 15.4019L14.8438 16.268L8.91568 12.8453L9.41568 11.9793ZM13.0479 19.2452L4.71648 16.636L4.41762 17.5902L12.749 20.1995L13.0479 19.2452ZM47.1977 17.2073L39.0239 19.8167L39.328 20.7693L47.5018 18.16L47.1977 17.2073ZM32.863 3.9933L30.5218 10.4257L29.5821 10.0837L31.9233 3.65128L32.863 3.9933ZM19.6836 3.9931L22.0248 10.4255L21.0851 10.7675L18.7439 4.33512L19.6836 3.9931Z" fill="#788FD6"/>
<path fill-rule="evenodd" clip-rule="evenodd" d="M26.5 0V9H25.5V0H26.5ZM45.2965 12.7093L37.453 16.7407L36.9959 15.8513L44.8394 11.8199L45.2965 12.7093ZM35.2444 12.804L40.8819 6.31763L40.1272 5.66163L34.4896 12.148L35.2444 12.804ZM17.9706 11.9476L12.3629 5.37971L11.6024 6.02904L17.21 12.597L17.9706 11.9476ZM9.41568 11.9793L15.3438 15.4019L14.8438 16.268L8.91568 12.8453L9.41568 11.9793ZM13.0479 19.2452L4.71648 16.636L4.41762 17.5902L12.749 20.1995L13.0479 19.2452ZM47.1977 17.2073L39.0239 19.8167L39.328 20.7693L47.5018 18.16L47.1977 17.2073ZM32.863 3.9933L30.5218 10.4257L29.5821 10.0837L31.9233 3.65128L32.863 3.9933ZM19.6836 3.9931L22.0248 10.4255L21.0851 10.7675L18.7439 4.33512L19.6836 3.9931Z" fill="#788FD6"/>
<path fill-rule="evenodd" clip-rule="evenodd" d="M26.5 0V9H25.5V0H26.5ZM45.2965 12.7093L37.453 16.7407L36.9959 15.8513L44.8394 11.8199L45.2965 12.7093ZM35.2444 12.804L40.8819 6.31763L40.1272 5.66163L34.4896 12.148L35.2444 12.804ZM17.9706 11.9476L12.3629 5.37971L11.6024 6.02904L17.21 12.597L17.9706 11.9476ZM9.41568 11.9793L15.3438 15.4019L14.8438 16.268L8.91568 12.8453L9.41568 11.9793ZM13.0479 19.2452L4.71648 16.636L4.41762 17.5902L12.749 20.1995L13.0479 19.2452ZM47.1977 17.2073L39.0239 19.8167L39.328 20.7693L47.5018 18.16L47.1977 17.2073ZM32.863 3.9933L30.5218 10.4257L29.5821 10.0837L31.9233 3.65128L32.863 3.9933ZM19.6836 3.9931L22.0248 10.4255L21.0851 10.7675L18.7439 4.33512L19.6836 3.9931Z" fill="#788FD6"/>
</g>
<defs>
<filter id="filter0_d_207_12" x="0.794937" y="6.49998" width="50.376" height="28.956" filterUnits="userSpaceOnUse" color-interpolation-filters="sRGB">
<feFlood flood-opacity="0" result="BackgroundImageFix"/>
<feColorMatrix in="SourceAlpha" type="matrix" values="0 0 0 0 0 0 0 0 0 0 0 0 0 0 0 0 0 0 127 0" result="hardAlpha"/>
<feOffset dy="4"/>
<feGaussianBlur stdDeviation="2"/>
<feComposite in2="hardAlpha" operator="out"/>
<feColorMatrix type="matrix" values="0 0 0 0 0 0 0 0 0 0 0 0 0 0 0 0 0 0 0.25 0"/>
<feBlend mode="normal" in2="BackgroundImageFix" result="effect1_dropShadow_207_12"/>
<feBlend mode="normal" in="SourceGraphic" in2="effect1_dropShadow_207_12" result="shape"/>
</filter>
<filter id="filter1_d_207_12" x="0.417618" y="0" width="51.0842" height="28.7693" filterUnits="userSpaceOnUse" color-interpolation-filters="sRGB">
<feFlood flood-opacity="0" result="BackgroundImageFix"/>
<feColorMatrix in="SourceAlpha" type="matrix" values="0 0 0 0 0 0 0 0 0 0 0 0 0 0 0 0 0 0 127 0" result="hardAlpha"/>
<feOffset dy="4"/>
<feGaussianBlur stdDeviation="2"/>
<feComposite in2="hardAlpha" operator="out"/>
<feColorMatrix type="matrix" values="0 0 0 0 0 0 0 0 0 0 0 0 0 0 0 0 0 0 0.25 0"/>
<feBlend mode="normal" in2="BackgroundImageFix" result="effect1_dropShadow_207_12"/>
<feBlend mode="normal" in="SourceGraphic" in2="effect1_dropShadow_207_12" result="shape"/>
</filter>
</defs>
</svg>
