<svg width="52" height="36" viewBox="0 0 52 36" fill="none" xmlns="http://www.w3.org/2000/svg">
<g filter="url(#filter0_d_207_13)">
<path d="M10.521 24.0898C22.862 19.8021 28.8827 20.3797 39.5712 23.5233C39.5712 23.5233 40.6886 17.5751 38.4539 13.6096C35.5722 8.49591 27.5601 5.99143 21.9735 7.37831C16.3869 8.76519 14.4316 11.9653 12.4763 15.0257C10.4835 18.1447 10.521 24.0898 10.521 24.0898Z" fill="#788FD6"/>
<path d="M4.58241 27C7.25211 25.7994 8.14995 24.9135 10.521 24.0898M46.5824 26C42.7584 24.6087 42.8769 24.4955 39.5712 23.5233M10.521 24.0898C22.862 19.8021 28.8827 20.3797 39.5712 23.5233M10.521 24.0898C10.521 24.0898 10.4835 18.1447 12.4763 15.0257C14.4316 11.9653 16.3869 8.76519 21.9735 7.37831C27.5601 5.99143 35.5722 8.49591 38.4539 13.6096C40.6886 17.5751 39.5712 23.5233 39.5712 23.5233" stroke="#788FD6"/>
</g>
<g filter="url(#filter1_d_207_13)">
<path fill-rule="evenodd" clip-rule="evenodd" d="M26.0824 0V9H25.0824V0H26.0824ZM44.8789 12.7093L37.0354 16.7407L36.5783 15.8513L44.4218 11.8199L44.8789 12.7093ZM34.8268 12.8041L40.4643 6.31766L39.7096 5.66166L34.072 12.1481L34.8268 12.8041ZM17.5529 11.9476L11.9453 5.37968L11.1848 6.02901L16.7924 12.5969L17.5529 11.9476ZM8.99808 11.9793L14.9262 15.4019L14.4262 16.268L8.49808 12.8453L8.99808 11.9793ZM12.6303 19.2452L4.29888 16.636L4.00002 17.5902L12.3314 20.1995L12.6303 19.2452ZM46.7801 17.2073L38.6063 19.8167L38.9104 20.7693L47.0842 18.16L46.7801 17.2073ZM32.4454 3.9933L30.1042 10.4257L29.1645 10.0837L31.5057 3.65128L32.4454 3.9933ZM19.266 3.9931L21.6072 10.4255L20.6675 10.7675L18.3263 4.33512L19.266 3.9931Z" fill="#788FD6"/>
<path fill-rule="evenodd" clip-rule="evenodd" d="M26.0824 0V9H25.0824V0H26.0824ZM44.8789 12.7093L37.0354 16.7407L36.5783 15.8513L44.4218 11.8199L44.8789 12.7093ZM34.8268 12.8041L40.4643 6.31766L39.7096 5.66166L34.072 12.1481L34.8268 12.8041ZM17.5529 11.9476L11.9453 5.37968L11.1848 6.02901L16.7924 12.5969L17.5529 11.9476ZM8.99808 11.9793L14.9262 15.4019L14.4262 16.268L8.49808 12.8453L8.99808 11.9793ZM12.6303 19.2452L4.29888 16.636L4.00002 17.5902L12.3314 20.1995L12.6303 19.2452ZM46.7801 17.2073L38.6063 19.8167L38.9104 20.7693L47.0842 18.16L46.7801 17.2073ZM32.4454 3.9933L30.1042 10.4257L29.1645 10.0837L31.5057 3.65128L32.4454 3.9933ZM19.266 3.9931L21.6072 10.4255L20.6675 10.7675L18.3263 4.33512L19.266 3.9931Z" fill="#788FD6"/>
<path fill-rule="evenodd" clip-rule="evenodd" d="M26.0824 0V9H25.0824V0H26.0824ZM44.8789 12.7093L37.0354 16.7407L36.5783 15.8513L44.4218 11.8199L44.8789 12.7093ZM34.8268 12.8041L40.4643 6.31766L39.7096 5.66166L34.072 12.1481L34.8268 12.8041ZM17.5529 11.9476L11.9453 5.37968L11.1848 6.02901L16.7924 12.5969L17.5529 11.9476ZM8.99808 11.9793L14.9262 15.4019L14.4262 16.268L8.49808 12.8453L8.99808 11.9793ZM12.6303 19.2452L4.29888 16.636L4.00002 17.5902L12.3314 20.1995L12.6303 19.2452ZM46.7801 17.2073L38.6063 19.8167L38.9104 20.7693L47.0842 18.16L46.7801 17.2073ZM32.4454 3.9933L30.1042 10.4257L29.1645 10.0837L31.5057 3.65128L32.4454 3.9933ZM19.266 3.9931L21.6072 10.4255L20.6675 10.7675L18.3263 4.33512L19.266 3.9931Z" fill="#788FD6"/>
<path fill-rule="evenodd" clip-rule="evenodd" d="M26.0824 0V9H25.0824V0H26.0824ZM44.8789 12.7093L37.0354 16.7407L36.5783 15.8513L44.4218 11.8199L44.8789 12.7093ZM34.8268 12.8041L40.4643 6.31766L39.7096 5.66166L34.072 12.1481L34.8268 12.8041ZM17.5529 11.9476L11.9453 5.37968L11.1848 6.02901L16.7924 12.5969L17.5529 11.9476ZM8.99808 11.9793L14.9262 15.4019L14.4262 16.268L8.49808 12.8453L8.99808 11.9793ZM12.6303 19.2452L4.29888 16.636L4.00002 17.5902L12.3314 20.1995L12.6303 19.2452ZM46.7801 17.2073L38.6063 19.8167L38.9104 20.7693L47.0842 18.16L46.7801 17.2073ZM32.4454 3.9933L30.1042 10.4257L29.1645 10.0837L31.5057 3.65128L32.4454 3.9933ZM19.266 3.9931L21.6072 10.4255L20.6675 10.7675L18.3263 4.33512L19.266 3.9931Z" fill="#788FD6"/>
</g>
<defs>
<filter id="filter0_d_207_13" x="0.377335" y="6.49998" width="50.376" height="28.956" filterUnits="userSpaceOnUse" color-interpolation-filters="sRGB">
<feFlood flood-opacity="0" result="BackgroundImageFix"/>
<feColorMatrix in="SourceAlpha" type="matrix" values="0 0 0 0 0 0 0 0 0 0 0 0 0 0 0 0 0 0 127 0" result="hardAlpha"/>
<feOffset dy="4"/>
<feGaussianBlur stdDeviation="2"/>
<feComposite in2="hardAlpha" operator="out"/>
<feColorMatrix type="matrix" values="0 0 0 0 0 0 0 0 0 0 0 0 0 0 0 0 0 0 0.25 0"/>
<feBlend mode="normal" in2="BackgroundImageFix" result="effect1_dropShadow_207_13"/>
<feBlend mode="normal" in="SourceGraphic" in2="effect1_dropShadow_207_13" result="shape"/>
</filter>
<filter id="filter1_d_207_13" x="1.52588e-05" y="0" width="51.0842" height="28.7693" filterUnits="userSpaceOnUse" color-interpolation-filters="sRGB">
<feFlood flood-opacity="0" result="BackgroundImageFix"/>
<feColorMatrix in="SourceAlpha" type="matrix" values="0 0 0 0 0 0 0 0 0 0 0 0 0 0 0 0 0 0 127 0" result="hardAlpha"/>
<feOffset dy="4"/>
<feGaussianBlur stdDeviation="2"/>
<feComposite in2="hardAlpha" operator="out"/>
<feColorMatrix type="matrix" values="0 0 0 0 0 0 0 0 0 0 0 0 0 0 0 0 0 0 0.25 0"/>
<feBlend mode="normal" in2="BackgroundImageFix" result="effect1_dropShadow_207_13"/>
<feBlend mode="normal" in="SourceGraphic" in2="effect1_dropShadow_207_13" result="shape"/>
</filter>
</defs>
</svg>
