<svg width="31" height="28" viewBox="0 0 31 28" fill="none" xmlns="http://www.w3.org/2000/svg">
<g filter="url(#filter0_d_11_626)">
<path fill-rule="evenodd" clip-rule="evenodd" d="M18.9236 2.07473C18.6526 1.87064 18.3809 1.68305 18.1093 1.51398C18.5415 1.95181 18.9577 2.47446 19.3384 3.06096C20.4804 4.8199 21.3413 7.21093 21.3413 9.75702C21.3413 12.3072 20.4775 14.5252 19.3234 16.1118C18.7464 16.9049 18.0902 17.5495 17.4211 17.9996C17.1963 18.1508 16.9664 18.2824 16.7345 18.3904C18.5185 18.0738 20.6317 17.2402 22.4387 16.2653C23.499 15.6932 24.4431 15.0782 25.144 14.5009C25.4946 14.2122 25.7797 13.9367 25.9874 13.6844C26.1979 13.4288 26.3148 13.2139 26.3536 13.0463C26.3689 12.9798 26.3718 12.8671 26.3464 12.6993C26.3217 12.5354 26.2727 12.3354 26.1989 12.1028C26.0513 11.6377 25.8102 11.0603 25.4887 10.4106C24.8461 9.11206 23.8919 7.54428 22.7522 6.04096C21.6119 4.53666 20.2929 3.10624 18.9236 2.07473ZM8.43449 4.34392C9.95973 2.74006 11.7336 1.34736 13.4915 0.775528C13.4255 0.822369 13.3601 0.871018 13.2952 0.921316C12.6231 1.44227 11.963 2.17791 11.3823 3.05782C10.2219 4.81631 9.3413 7.20839 9.3413 9.75702C9.3413 12.31 10.2249 14.529 11.3976 16.1149C11.9839 16.9078 12.6492 17.5516 13.3245 18.001C13.5131 18.1264 13.705 18.2384 13.8985 18.3345C13.2365 18.1821 12.5543 17.9419 11.8716 17.6328C10.5019 17.0128 9.14792 16.1236 7.97882 15.1436C6.80875 14.1628 5.83351 13.0991 5.21487 12.1356C4.90542 11.6537 4.69046 11.2049 4.58171 10.8105C4.47255 10.4145 4.4758 10.0939 4.57339 9.84988C5.05818 8.63786 6.51998 6.35712 8.43449 4.34392ZM26.8408 12.6247C26.8702 12.8188 26.8767 13.0034 26.8407 13.1589C26.7769 13.4353 26.6051 13.7209 26.3733 14.0023C26.1388 14.2871 25.8281 14.5853 25.4619 14.8869C24.7292 15.4903 23.7561 16.1226 22.6761 16.7053C20.5219 17.8676 17.8995 18.8553 15.8598 19.0064C14.5374 19.1044 13.08 18.7287 11.6654 18.0883C10.248 17.4466 8.85584 16.5312 7.65762 15.5268C6.46038 14.5232 5.44714 13.4228 4.79414 12.4058C4.46777 11.8975 4.22611 11.4019 4.0997 10.9433C3.9737 10.4863 3.95674 10.0452 4.10915 9.66418C4.62433 8.3762 6.12862 6.04309 8.07217 3.99936C10.008 1.96374 12.4409 0.149685 14.8264 0.00749178C16.2983 -0.0802415 17.8104 0.610261 19.2244 1.67536C20.643 2.74391 21.9936 4.21252 23.1507 5.7389C24.3085 7.26625 25.2797 8.86079 25.9369 10.1889C26.2653 10.8525 26.5177 11.4545 26.6754 11.9515C26.7543 12.2 26.8109 12.4267 26.8408 12.6247ZM15.3774 18.2217C17.5366 18.2217 20.8413 14.6325 20.8413 9.75702C20.8413 4.88155 17.5366 0.566015 15.3774 0.566015C13.2182 0.566015 9.8413 4.88155 9.8413 9.75702C9.8413 14.6325 13.2182 18.2217 15.3774 18.2217ZM15.3774 13.9384C16.4889 13.9384 17.39 11.9037 17.39 9.39388C17.39 6.88401 16.4889 4.84937 15.3774 4.84937C14.2659 4.84937 13.3648 6.88401 13.3648 9.39388C13.3648 11.9037 14.2659 13.9384 15.3774 13.9384Z" fill="#788FD6"/>
</g>
<defs>
<filter id="filter0_d_11_626" x="0" y="0" width="30.8653" height="27.0218" filterUnits="userSpaceOnUse" color-interpolation-filters="sRGB">
<feFlood flood-opacity="0" result="BackgroundImageFix"/>
<feColorMatrix in="SourceAlpha" type="matrix" values="0 0 0 0 0 0 0 0 0 0 0 0 0 0 0 0 0 0 127 0" result="hardAlpha"/>
<feOffset dy="4"/>
<feGaussianBlur stdDeviation="2"/>
<feComposite in2="hardAlpha" operator="out"/>
<feColorMatrix type="matrix" values="0 0 0 0 0 0 0 0 0 0 0 0 0 0 0 0 0 0 0.25 0"/>
<feBlend mode="normal" in2="BackgroundImageFix" result="effect1_dropShadow_11_626"/>
<feBlend mode="normal" in="SourceGraphic" in2="effect1_dropShadow_11_626" result="shape"/>
</filter>
</defs>
</svg>
