<svg width="35" height="24" viewBox="0 0 35 24" fill="none" xmlns="http://www.w3.org/2000/svg">
<path opacity="0.8" fill-rule="evenodd" clip-rule="evenodd" d="M24.1461 11.7169C25.9132 11.7169 27.0698 10.6004 27.3911 10.0572C27.7124 9.5141 28.3871 7.99933 27.3911 6.47249C27.3041 6.33906 27.2218 6.2131 27.1439 6.09375C25.985 4.31918 25.7794 4.00438 24.9814 2.29026C24.5805 1.4289 24.1461 0 24.1461 0C24.1461 0 23.7595 1.4206 23.4071 2.29026C22.7077 4.01626 21.4473 5.77545 20.9332 6.47249C19.9051 7.86656 20.6028 9.3934 20.9332 10.0572C21.2636 10.7211 22.379 11.7169 24.1461 11.7169ZM30.9187 19.4839C32.6858 19.4839 33.8424 18.3674 34.1637 17.8242C34.485 17.2811 35.1597 15.7663 34.1637 14.2395C34.0767 14.1061 33.9944 13.9801 33.9165 13.8607C32.7576 12.0862 32.552 11.7714 31.7541 10.0573C31.3531 9.1959 30.9187 7.76699 30.9187 7.76699C30.9187 7.76699 30.5321 9.1876 30.1797 10.0573C29.4804 11.7833 28.2199 13.5424 27.7058 14.2395C26.6777 15.6336 27.3754 17.1604 27.7058 17.8242C28.0362 18.4881 29.1516 19.4839 30.9187 19.4839Z" fill="#788FD6"/>
<path opacity="0.4" fill-rule="evenodd" clip-rule="evenodd" d="M0.438535 8.4405C0.877275 8.68031 0.877218 8.68041 0.87718 8.68048L0.877198 8.68045L0.877573 8.67976L0.879672 8.67596L0.889224 8.65882C0.897954 8.64323 0.911384 8.61946 0.92938 8.58816C0.965378 8.52556 1.01961 8.43293 1.09101 8.3156C1.23389 8.08082 1.44509 7.74785 1.71609 7.35922C2.25973 6.57958 3.03625 5.58714 3.97651 4.71423C4.92069 3.83767 6.00004 3.1097 7.14708 2.81281C8.27181 2.52168 9.49133 2.63584 10.7763 3.49616C12.0158 4.32599 13.1447 5.47884 14.2485 6.73986C14.6807 7.23366 15.1158 7.7524 15.5516 8.27212L15.5516 8.27214L15.5516 8.27215L15.5517 8.27217L15.5517 8.27228C16.2059 9.05226 16.8618 9.83444 17.5129 10.5378C18.6107 11.7237 19.7752 12.78 21.0812 13.398C22.4089 14.0263 23.8677 14.1939 25.5082 13.6296C26.826 13.1763 27.8841 12.6403 28.8584 11.8606C29.8285 11.0842 30.6941 10.0832 31.6477 8.72806L30.8299 8.15256C29.9043 9.46777 29.1013 10.3854 28.2336 11.0798C27.3701 11.7709 26.4212 12.258 25.1829 12.684C23.8058 13.1577 22.617 13.0184 21.509 12.4941C20.3792 11.9595 19.3197 11.0176 18.2468 9.85851C17.6038 9.16391 16.9842 8.42448 16.3488 7.66608C15.9113 7.14398 15.4663 6.61288 15.001 6.08122C13.8824 4.80336 12.684 3.56992 11.3327 2.66521C9.80409 1.6418 8.28981 1.48407 6.8965 1.84471C5.52549 2.19958 4.30254 3.04704 3.29613 3.98136C2.28579 4.91934 1.46342 5.97325 0.89582 6.78724C0.611194 7.19542 0.388689 7.54609 0.236761 7.79574C0.160761 7.92063 0.102317 8.02041 0.0624893 8.08967C0.0425727 8.1243 0.0273026 8.15132 0.0168114 8.17005L0.00467211 8.19184L0.0013195 8.19791L0.00032774 8.19972L3.66985e-06 8.20031C-0.000110533 8.20052 -0.000205662 8.20069 0.438535 8.4405ZM0.438535 18.4541C0.877275 18.6939 0.877218 18.694 0.87718 18.6941L0.877198 18.6941L0.877573 18.6934L0.879672 18.6896L0.889224 18.6724C0.897954 18.6568 0.911384 18.6331 0.92938 18.6018C0.965378 18.5392 1.01961 18.4465 1.09101 18.3292C1.23389 18.0944 1.44509 17.7615 1.71609 17.3728C2.25973 16.5932 3.03625 15.6007 3.97651 14.7278C4.92069 13.8513 6.00004 13.1233 7.14708 12.8264C8.27181 12.5353 9.49133 12.6494 10.7763 13.5098C12.0158 14.3396 13.1447 15.4924 14.2485 16.7535C14.6807 17.2472 15.1156 17.7659 15.5514 18.2855L15.5515 18.2856L15.5515 18.2856L15.5516 18.2858C16.2058 19.0658 16.8618 19.848 17.5129 20.5514C18.6107 21.7373 19.7752 22.7936 21.0812 23.4116C22.4089 24.0399 23.8677 24.2075 25.5082 23.6432C26.826 23.1899 27.8841 22.6539 28.8584 21.8742C29.8285 21.0978 30.6941 20.0968 31.6477 18.7417L30.8299 18.1662C29.9043 19.4814 29.1013 20.399 28.2336 21.0934C27.3701 21.7845 26.4212 22.2716 25.1829 22.6976C23.8058 23.1713 22.617 23.0321 21.509 22.5077C20.3792 21.9731 19.3197 21.0312 18.2468 19.8721C17.6038 19.1775 16.9842 18.4381 16.3488 17.6797C15.9113 17.1576 15.4663 16.6265 15.001 16.0948C13.8824 14.817 12.684 13.5835 11.3327 12.6788C9.80409 11.6554 8.28981 11.4977 6.8965 11.8583C5.52549 12.2132 4.30254 13.0606 3.29613 13.995C2.28579 14.9329 1.46342 15.9869 0.89582 16.8008C0.611194 17.209 0.388689 17.5597 0.236761 17.8093C0.160761 17.9342 0.102317 18.034 0.0624893 18.1033C0.0425727 18.1379 0.0273026 18.1649 0.0168114 18.1837L0.00467211 18.2054L0.0013195 18.2115L0.00032774 18.2133L3.66985e-06 18.2139C-0.000110533 18.2141 -0.000205662 18.2143 0.438535 18.4541ZM0.87718 12.1509C0.877218 12.1509 0.877275 12.1508 0.438535 11.9109C-0.000205662 11.6711 -0.000110533 11.671 3.66985e-06 11.6708L0.00032774 11.6702L0.0013195 11.6684L0.00467211 11.6623L0.0168114 11.6405C0.0273026 11.6218 0.0425727 11.5948 0.0624893 11.5601C0.102317 11.4909 0.160761 11.3911 0.236761 11.2662C0.388689 11.0165 0.611194 10.6659 0.89582 10.2577C1.46342 9.4437 2.28579 8.38979 3.29613 7.45181C4.30254 6.51749 5.52549 5.67003 6.8965 5.31516C8.28981 4.95452 9.80409 5.11225 11.3327 6.13565C12.684 7.04037 13.8824 8.27381 15.001 9.55167C15.4663 10.0833 15.9113 10.6144 16.3488 11.1365C16.9842 11.8949 17.6038 12.6344 18.2468 13.329C19.3197 14.488 20.3792 15.43 21.509 15.9646C22.617 16.4889 23.8058 16.6281 25.1829 16.1544C26.4212 15.7285 27.3701 15.2413 28.2336 14.5503C29.1013 13.8558 29.9043 12.9382 30.8299 11.623L31.6477 12.1985C30.6941 13.5536 29.8285 14.5546 28.8584 15.331C27.8841 16.1108 26.826 16.6467 25.5082 17.1C23.8677 17.6644 22.4089 17.4967 21.0812 16.8685C19.7752 16.2505 18.6107 15.1941 17.5129 14.0083C16.8618 13.3048 16.2058 12.5226 15.5516 11.7426L15.5516 11.7426L15.5515 11.7425C15.1157 11.2228 14.6807 10.7041 14.2485 10.2103C13.1447 8.94929 12.0158 7.79643 10.7763 6.96661C9.49133 6.10629 8.27181 5.99213 7.14708 6.28326C6.00004 6.58015 4.92069 7.30812 3.97651 8.18468C3.03625 9.05759 2.25973 10.05 1.71609 10.8297C1.44509 11.2183 1.23389 11.5513 1.09101 11.786C1.01961 11.9034 0.965378 11.996 0.92938 12.0586C0.911384 12.0899 0.897954 12.1137 0.889224 12.1293L0.879672 12.1464L0.877573 12.1502L0.877198 12.1509L0.87718 12.1509ZM0.438535 14.5138C0.877275 14.7536 0.877218 14.7537 0.87718 14.7538L0.877198 14.7537L0.877573 14.753L0.879672 14.7492L0.889224 14.7321C0.897954 14.7165 0.911384 14.6927 0.92938 14.6615C0.965378 14.5989 1.01961 14.5062 1.09101 14.3889C1.23389 14.1541 1.44509 13.8211 1.71609 13.4325C2.25973 12.6529 3.03625 11.6604 3.97651 10.7875C4.92069 9.91095 6.00004 9.18299 7.14708 8.88609C8.27181 8.59497 9.49133 8.70912 10.7763 9.56945C12.0158 10.3993 13.1447 11.5521 14.2485 12.8131C14.6807 13.307 15.1158 13.8257 15.5516 14.3454L15.5517 14.3455C16.2058 15.1255 16.8618 15.9077 17.5129 16.6111C18.6107 17.7969 19.7752 18.8533 21.0812 19.4713C22.4089 20.0996 23.8677 20.2672 25.5082 19.7029C26.826 19.2495 27.8841 18.7136 28.8584 17.9338C29.8285 17.1575 30.6941 16.1565 31.6477 14.8013L30.8299 14.2259C29.9043 15.5411 29.1013 16.4586 28.2336 17.1531C27.3701 17.8442 26.4212 18.3313 25.1829 18.7573C23.8058 19.231 22.617 19.0917 21.509 18.5674C20.3792 18.0328 19.3197 17.0909 18.2468 15.9318C17.6038 15.2372 16.9842 14.4978 16.3488 13.7394C15.9113 13.2173 15.4663 12.6862 15.001 12.1545C13.8824 10.8766 12.684 9.64321 11.3327 8.73849C9.80409 7.71509 8.28981 7.55736 6.8965 7.918C5.52549 8.27287 4.30254 9.12032 3.29613 10.0546C2.28579 10.9926 1.46342 12.0465 0.89582 12.8605C0.611194 13.2687 0.388689 13.6194 0.236761 13.869C0.160761 13.9939 0.102317 14.0937 0.0624893 14.163C0.0425727 14.1976 0.0273026 14.2246 0.0168114 14.2433L0.00467211 14.2651L0.0013195 14.2712L0.00032774 14.273L3.66985e-06 14.2736C-0.000110533 14.2738 -0.000205662 14.274 0.438535 14.5138Z" fill="#788FD6"/>
</svg>
