<svg width="25" height="27" viewBox="0 0 25 27" fill="none" xmlns="http://www.w3.org/2000/svg">
<g opacity="0.7" filter="url(#filter0_d_223_18)">
<path d="M20 7.86777V18H5V7.86777M20 7.86777V4.17213H17.7444M20 7.86777H5M5 7.86777V4.17213H7.63598M7.63598 4.17213C7.63598 4.17213 7.4286 0.988643 8.76569 1.00003C10.0988 1.01138 9.86402 4.17213 9.86402 4.17213M7.63598 4.17213H9.86402M9.86402 4.17213H15.3759M15.3759 4.17213C15.3759 4.17213 15.1368 1.00003 16.5481 1.00003C17.9595 1.00003 17.7444 4.17213 17.7444 4.17213M15.3759 4.17213H17.7444" stroke="#788FD6" stroke-opacity="0.8" shape-rendering="crispEdges"/>
</g>
<path opacity="0.7" fill-rule="evenodd" clip-rule="evenodd" d="M6.2926 10.3521C6.47107 10.3521 6.61575 10.2074 6.61575 10.0289C6.61575 9.85046 6.47107 9.70578 6.2926 9.70578C6.11413 9.70578 5.96945 9.85046 5.96945 10.0289C5.96945 10.2074 6.11413 10.3521 6.2926 10.3521ZM12.1093 10.3521C12.2878 10.3521 12.4325 10.2074 12.4325 10.0289C12.4325 9.85046 12.2878 9.70578 12.1093 9.70578C11.9309 9.70578 11.7862 9.85046 11.7862 10.0289C11.7862 10.2074 11.9309 10.3521 12.1093 10.3521ZM10.4935 10.0289C10.4935 10.2074 10.3489 10.3521 10.1704 10.3521C9.99191 10.3521 9.84723 10.2074 9.84723 10.0289C9.84723 9.85046 9.99191 9.70578 10.1704 9.70578C10.3489 9.70578 10.4935 9.85046 10.4935 10.0289ZM8.23149 10.3521C8.40996 10.3521 8.55464 10.2074 8.55464 10.0289C8.55464 9.85046 8.40996 9.70578 8.23149 9.70578C8.05302 9.70578 7.90834 9.85046 7.90834 10.0289C7.90834 10.2074 8.05302 10.3521 8.23149 10.3521Z" fill="#D9D9D9"/>
<path opacity="0.7" fill-rule="evenodd" clip-rule="evenodd" d="M6.2926 14.4453C6.47107 14.4453 6.61575 14.3007 6.61575 14.1222C6.61575 13.9437 6.47107 13.799 6.2926 13.799C6.11413 13.799 5.96945 13.9437 5.96945 14.1222C5.96945 14.3007 6.11413 14.4453 6.2926 14.4453ZM6.2926 16.492C6.47107 16.492 6.61575 16.3473 6.61575 16.1688C6.61575 15.9903 6.47107 15.8457 6.2926 15.8457C6.11413 15.8457 5.96945 15.9903 5.96945 16.1688C5.96945 16.3473 6.11413 16.492 6.2926 16.492ZM17.926 16.492C18.1045 16.492 18.2492 16.3473 18.2492 16.1688C18.2492 15.9903 18.1045 15.8457 17.926 15.8457C17.7476 15.8457 17.6029 15.9903 17.6029 16.1688C17.6029 16.3473 17.7476 16.492 17.926 16.492ZM16.3103 16.1688C16.3103 16.3473 16.1656 16.492 15.9872 16.492C15.8087 16.492 15.664 16.3473 15.664 16.1688C15.664 15.9903 15.8087 15.8457 15.9872 15.8457C16.1656 15.8457 16.3103 15.9903 16.3103 16.1688ZM14.0482 16.492C14.2267 16.492 14.3714 16.3473 14.3714 16.1688C14.3714 15.9903 14.2267 15.8457 14.0482 15.8457C13.8698 15.8457 13.7251 15.9903 13.7251 16.1688C13.7251 16.3473 13.8698 16.492 14.0482 16.492ZM12.4325 16.1688C12.4325 16.3473 12.2878 16.492 12.1093 16.492C11.9309 16.492 11.7862 16.3473 11.7862 16.1688C11.7862 15.9903 11.9309 15.8457 12.1093 15.8457C12.2878 15.8457 12.4325 15.9903 12.4325 16.1688ZM10.1704 16.492C10.3489 16.492 10.4935 16.3473 10.4935 16.1688C10.4935 15.9903 10.3489 15.8457 10.1704 15.8457C9.99191 15.8457 9.84723 15.9903 9.84723 16.1688C9.84723 16.3473 9.99191 16.492 10.1704 16.492ZM8.55464 16.1688C8.55464 16.3473 8.40996 16.492 8.23149 16.492C8.05302 16.492 7.90834 16.3473 7.90834 16.1688C7.90834 15.9903 8.05302 15.8457 8.23149 15.8457C8.40996 15.8457 8.55464 15.9903 8.55464 16.1688ZM18.2492 14.1222C18.2492 14.3007 18.1045 14.4453 17.926 14.4453C17.7476 14.4453 17.6029 14.3007 17.6029 14.1222C17.6029 13.9437 17.7476 13.799 17.926 13.799C18.1045 13.799 18.2492 13.9437 18.2492 14.1222ZM15.9872 14.4453C16.1656 14.4453 16.3103 14.3007 16.3103 14.1222C16.3103 13.9437 16.1656 13.799 15.9872 13.799C15.8087 13.799 15.664 13.9437 15.664 14.1222C15.664 14.3007 15.8087 14.4453 15.9872 14.4453ZM14.3714 14.1222C14.3714 14.3007 14.2267 14.4453 14.0482 14.4453C13.8698 14.4453 13.7251 14.3007 13.7251 14.1222C13.7251 13.9437 13.8698 13.799 14.0482 13.799C14.2267 13.799 14.3714 13.9437 14.3714 14.1222ZM12.1093 14.4453C12.2878 14.4453 12.4325 14.3007 12.4325 14.1222C12.4325 13.9437 12.2878 13.799 12.1093 13.799C11.9309 13.799 11.7862 13.9437 11.7862 14.1222C11.7862 14.3007 11.9309 14.4453 12.1093 14.4453ZM10.4935 14.1222C10.4935 14.3007 10.3489 14.4453 10.1704 14.4453C9.99191 14.4453 9.84723 14.3007 9.84723 14.1222C9.84723 13.9437 9.99191 13.799 10.1704 13.799C10.3489 13.799 10.4935 13.9437 10.4935 14.1222ZM8.23149 14.4453C8.40996 14.4453 8.55464 14.3007 8.55464 14.1222C8.55464 13.9437 8.40996 13.799 8.23149 13.799C8.05302 13.799 7.90834 13.9437 7.90834 14.1222C7.90834 14.3007 8.05302 14.4453 8.23149 14.4453Z" fill="#D9D9D9"/>
<path opacity="0.7" fill-rule="evenodd" clip-rule="evenodd" d="M14.3714 10.0289C14.3714 10.2074 14.2267 10.3521 14.0482 10.3521C13.8698 10.3521 13.7251 10.2074 13.7251 10.0289C13.7251 9.85046 13.8698 9.70578 14.0482 9.70578C14.2267 9.70578 14.3714 9.85046 14.3714 10.0289ZM15.9872 10.3521C16.1656 10.3521 16.3103 10.2074 16.3103 10.0289C16.3103 9.85046 16.1656 9.70578 15.9872 9.70578C15.8087 9.70578 15.664 9.85046 15.664 10.0289C15.664 10.2074 15.8087 10.3521 15.9872 10.3521ZM17.926 10.3521C18.1045 10.3521 18.2492 10.2074 18.2492 10.0289C18.2492 9.85046 18.1045 9.70578 17.926 9.70578C17.7476 9.70578 17.6029 9.85046 17.6029 10.0289C17.6029 10.2074 17.7476 10.3521 17.926 10.3521ZM6.2926 12.3987C6.47107 12.3987 6.61575 12.254 6.61575 12.0756C6.61575 11.8971 6.47107 11.7524 6.2926 11.7524C6.11413 11.7524 5.96945 11.8971 5.96945 12.0756C5.96945 12.254 6.11413 12.3987 6.2926 12.3987ZM18.2492 12.0756C18.2492 12.254 18.1045 12.3987 17.926 12.3987C17.7476 12.3987 17.6029 12.254 17.6029 12.0756C17.6029 11.8971 17.7476 11.7524 17.926 11.7524C18.1045 11.7524 18.2492 11.8971 18.2492 12.0756ZM15.9872 12.3987C16.1656 12.3987 16.3103 12.254 16.3103 12.0756C16.3103 11.8971 16.1656 11.7524 15.9872 11.7524C15.8087 11.7524 15.664 11.8971 15.664 12.0756C15.664 12.254 15.8087 12.3987 15.9872 12.3987ZM14.3714 12.0756C14.3714 12.254 14.2267 12.3987 14.0482 12.3987C13.8698 12.3987 13.7251 12.254 13.7251 12.0756C13.7251 11.8971 13.8698 11.7524 14.0482 11.7524C14.2267 11.7524 14.3714 11.8971 14.3714 12.0756ZM12.1093 12.3987C12.2878 12.3987 12.4325 12.254 12.4325 12.0756C12.4325 11.8971 12.2878 11.7524 12.1093 11.7524C11.9309 11.7524 11.7862 11.8971 11.7862 12.0756C11.7862 12.254 11.9309 12.3987 12.1093 12.3987ZM10.4935 12.0756C10.4935 12.254 10.3489 12.3987 10.1704 12.3987C9.99191 12.3987 9.84723 12.254 9.84723 12.0756C9.84723 11.8971 9.99191 11.7524 10.1704 11.7524C10.3489 11.7524 10.4935 11.8971 10.4935 12.0756ZM8.23149 12.3987C8.40996 12.3987 8.55464 12.254 8.55464 12.0756C8.55464 11.8971 8.40996 11.7524 8.23149 11.7524C8.05302 11.7524 7.90834 11.8971 7.90834 12.0756C7.90834 12.254 8.05302 12.3987 8.23149 12.3987Z" fill="black"/>
<defs>
<filter id="filter0_d_223_18" x="0.5" y="0.5" width="24" height="26" filterUnits="userSpaceOnUse" color-interpolation-filters="sRGB">
<feFlood flood-opacity="0" result="BackgroundImageFix"/>
<feColorMatrix in="SourceAlpha" type="matrix" values="0 0 0 0 0 0 0 0 0 0 0 0 0 0 0 0 0 0 127 0" result="hardAlpha"/>
<feOffset dy="4"/>
<feGaussianBlur stdDeviation="2"/>
<feComposite in2="hardAlpha" operator="out"/>
<feColorMatrix type="matrix" values="0 0 0 0 0 0 0 0 0 0 0 0 0 0 0 0 0 0 0.25 0"/>
<feBlend mode="normal" in2="BackgroundImageFix" result="effect1_dropShadow_223_18"/>
<feBlend mode="normal" in="SourceGraphic" in2="effect1_dropShadow_223_18" result="shape"/>
</filter>
</defs>
</svg>
