<svg width="68" height="39" viewBox="0 0 68 39" fill="none" xmlns="http://www.w3.org/2000/svg">
<g filter="url(#filter0_di_203_2)">
<path fill-rule="evenodd" clip-rule="evenodd" d="M34.8451 24.0459C36.3552 24.0272 37.8073 23.9805 39.1743 23.9095C39.5339 24.0051 39.9049 24.0551 40.2842 24.0551C40.8619 24.0551 41.4203 23.9391 41.9484 23.7228C42.4845 23.6778 43.0009 23.6286 43.4953 23.5757C44.22 23.8842 45.0193 24.0552 45.8594 24.0552C49.1465 24.0552 51.8113 21.4368 51.8113 18.2069C51.8113 14.977 49.1465 12.3586 45.8594 12.3586C45.8244 12.3586 45.7895 12.3589 45.7547 12.3595C44.8437 9.37359 42.7372 7.28266 40.2842 7.28266C39.8435 7.28266 39.414 7.35015 39.0006 7.47818C37.7156 3.81414 35.196 1.32412 32.2981 1.32412C31.0068 1.32412 29.7906 1.81854 28.7253 2.69092C27.6181 1.00667 26.215 0 24.6887 0C21.4793 0 18.815 4.45065 18.2995 10.2926C16.1457 11.2282 14.5931 13.8746 14.5931 16.9931C14.5931 20.8934 17.0217 24.0552 20.0176 24.0552C20.707 24.0552 21.3663 23.8878 21.9729 23.5825C22.7989 24.3109 23.7189 24.7172 24.6887 24.7172C25.516 24.7172 26.3071 24.4215 27.0344 23.8824C27.8788 23.9307 28.7579 23.9695 29.6651 23.9981C30.4856 24.4632 31.3725 24.7172 32.2981 24.7172C33.1914 24.7172 34.0488 24.4806 34.8451 24.0459Z" fill="#D9D9D9"/>
</g>
<g filter="url(#filter1_di_203_2)">
<path fill-rule="evenodd" clip-rule="evenodd" d="M46.3209 29.6594C47.831 29.6467 49.2831 29.6148 50.6502 29.5663C51.0098 29.6315 51.3808 29.6657 51.7601 29.6657C52.3378 29.6657 52.8962 29.5865 53.4244 29.4388C53.9605 29.4081 54.4769 29.3745 54.9714 29.3384C55.696 29.549 56.4953 29.6657 57.3353 29.6657C60.6224 29.6657 63.2872 27.8779 63.2872 25.6726C63.2872 23.4673 60.6224 21.6796 57.3353 21.6796C57.3003 21.6796 57.2654 21.6798 57.2306 21.6802C56.3195 19.6415 54.2131 18.2139 51.7601 18.2139C51.3194 18.2139 50.8899 18.26 50.4765 18.3474C49.1915 15.8457 46.6719 14.1456 43.774 14.1456C42.4827 14.1456 41.2665 14.4831 40.2012 15.0788C39.094 13.9288 37.6909 13.2415 36.1646 13.2415C32.9552 13.2415 30.2909 16.2802 29.7754 20.269C27.6216 20.9077 26.069 22.7146 26.069 24.8439C26.069 27.5069 28.4976 29.6657 31.4935 29.6657C32.1828 29.6657 32.8422 29.5514 33.4488 29.3429C34.2748 29.8403 35.1948 30.1177 36.1646 30.1177C36.9918 30.1177 37.7829 29.9158 38.5102 29.5478C39.3546 29.5807 40.2338 29.6073 41.1411 29.6267C41.9615 29.9443 42.8485 30.1177 43.774 30.1177C44.6673 30.1177 45.5246 29.9562 46.3209 29.6594Z" fill="#D9D9D9"/>
</g>
<g filter="url(#filter2_di_203_2)">
<path fill-rule="evenodd" clip-rule="evenodd" d="M19.8513 24.2618C21.0334 24.2491 22.1702 24.2174 23.2404 24.1692C23.5217 24.234 23.812 24.2679 24.1087 24.2679C24.5607 24.2679 24.9976 24.1892 25.4109 24.0426C25.8307 24.012 26.2351 23.9786 26.6222 23.9427C27.1894 24.152 27.815 24.268 28.4724 24.268C31.0453 24.268 33.131 22.4912 33.131 20.2995C33.131 18.1078 31.0453 16.331 28.4724 16.331C28.4451 16.331 28.4178 16.3313 28.3905 16.3317C27.6775 14.3054 26.0287 12.8866 24.1087 12.8866C23.7637 12.8866 23.4276 12.9324 23.104 13.0193C22.0982 10.533 20.1261 8.84332 17.8579 8.84332C16.8472 8.84332 15.8953 9.17881 15.0614 9.77079C14.1948 8.62792 13.0966 7.94482 11.9019 7.94482C9.38997 7.94482 7.30456 10.9649 6.90109 14.929C5.21528 15.5639 4 17.3597 4 19.4758C4 22.1224 5.90092 24.2679 8.24582 24.2679C8.78537 24.2679 9.3014 24.1543 9.77619 23.9472C10.4227 24.4415 11.1429 24.7172 11.9019 24.7172C12.5494 24.7172 13.1686 24.5166 13.7379 24.1508C14.3988 24.1836 15.087 24.2099 15.7972 24.2293C16.4393 24.5449 17.1335 24.7172 17.8579 24.7172C18.557 24.7172 19.228 24.5567 19.8513 24.2618Z" fill="#D9D9D9"/>
</g>
<defs>
<filter id="filter0_di_203_2" x="10.5931" y="0" width="45.2182" height="32.7173" filterUnits="userSpaceOnUse" color-interpolation-filters="sRGB">
<feFlood flood-opacity="0" result="BackgroundImageFix"/>
<feColorMatrix in="SourceAlpha" type="matrix" values="0 0 0 0 0 0 0 0 0 0 0 0 0 0 0 0 0 0 127 0" result="hardAlpha"/>
<feOffset dy="4"/>
<feGaussianBlur stdDeviation="2"/>
<feComposite in2="hardAlpha" operator="out"/>
<feColorMatrix type="matrix" values="0 0 0 0 0 0 0 0 0 0 0 0 0 0 0 0 0 0 0.25 0"/>
<feBlend mode="normal" in2="BackgroundImageFix" result="effect1_dropShadow_203_2"/>
<feBlend mode="normal" in="SourceGraphic" in2="effect1_dropShadow_203_2" result="shape"/>
<feColorMatrix in="SourceAlpha" type="matrix" values="0 0 0 0 0 0 0 0 0 0 0 0 0 0 0 0 0 0 127 0" result="hardAlpha"/>
<feOffset dy="1"/>
<feGaussianBlur stdDeviation="2"/>
<feComposite in2="hardAlpha" operator="arithmetic" k2="-1" k3="1"/>
<feColorMatrix type="matrix" values="0 0 0 0 0 0 0 0 0 0 0 0 0 0 0 0 0 0 0.25 0"/>
<feBlend mode="normal" in2="shape" result="effect2_innerShadow_203_2"/>
</filter>
<filter id="filter1_di_203_2" x="22.069" y="13.2415" width="45.2182" height="24.8762" filterUnits="userSpaceOnUse" color-interpolation-filters="sRGB">
<feFlood flood-opacity="0" result="BackgroundImageFix"/>
<feColorMatrix in="SourceAlpha" type="matrix" values="0 0 0 0 0 0 0 0 0 0 0 0 0 0 0 0 0 0 127 0" result="hardAlpha"/>
<feOffset dy="4"/>
<feGaussianBlur stdDeviation="2"/>
<feComposite in2="hardAlpha" operator="out"/>
<feColorMatrix type="matrix" values="0 0 0 0 0 0 0 0 0 0 0 0 0 0 0 0 0 0 0.25 0"/>
<feBlend mode="normal" in2="BackgroundImageFix" result="effect1_dropShadow_203_2"/>
<feBlend mode="normal" in="SourceGraphic" in2="effect1_dropShadow_203_2" result="shape"/>
<feColorMatrix in="SourceAlpha" type="matrix" values="0 0 0 0 0 0 0 0 0 0 0 0 0 0 0 0 0 0 127 0" result="hardAlpha"/>
<feOffset dy="1"/>
<feGaussianBlur stdDeviation="2"/>
<feComposite in2="hardAlpha" operator="arithmetic" k2="-1" k3="1"/>
<feColorMatrix type="matrix" values="0 0 0 0 0 0 0 0 0 0 0 0 0 0 0 0 0 0 0.25 0"/>
<feBlend mode="normal" in2="shape" result="effect2_innerShadow_203_2"/>
</filter>
<filter id="filter2_di_203_2" x="0" y="7.94482" width="37.131" height="24.7725" filterUnits="userSpaceOnUse" color-interpolation-filters="sRGB">
<feFlood flood-opacity="0" result="BackgroundImageFix"/>
<feColorMatrix in="SourceAlpha" type="matrix" values="0 0 0 0 0 0 0 0 0 0 0 0 0 0 0 0 0 0 127 0" result="hardAlpha"/>
<feOffset dy="4"/>
<feGaussianBlur stdDeviation="2"/>
<feComposite in2="hardAlpha" operator="out"/>
<feColorMatrix type="matrix" values="0 0 0 0 0 0 0 0 0 0 0 0 0 0 0 0 0 0 0.25 0"/>
<feBlend mode="normal" in2="BackgroundImageFix" result="effect1_dropShadow_203_2"/>
<feBlend mode="normal" in="SourceGraphic" in2="effect1_dropShadow_203_2" result="shape"/>
<feColorMatrix in="SourceAlpha" type="matrix" values="0 0 0 0 0 0 0 0 0 0 0 0 0 0 0 0 0 0 127 0" result="hardAlpha"/>
<feOffset dy="1"/>
<feGaussianBlur stdDeviation="2"/>
<feComposite in2="hardAlpha" operator="arithmetic" k2="-1" k3="1"/>
<feColorMatrix type="matrix" values="0 0 0 0 0 0 0 0 0 0 0 0 0 0 0 0 0 0 0.25 0"/>
<feBlend mode="normal" in2="shape" result="effect2_innerShadow_203_2"/>
</filter>
</defs>
</svg>
