<svg width="71" height="57" viewBox="0 0 71 57" fill="none" xmlns="http://www.w3.org/2000/svg">
<g filter="url(#filter0_di_205_9)">
<path fill-rule="evenodd" clip-rule="evenodd" d="M36.2671 22.4593C37.8468 22.4419 39.3659 22.3982 40.796 22.3319C41.1721 22.4212 41.5601 22.4678 41.9569 22.4678C42.5611 22.4678 43.1452 22.3596 43.6977 22.1576C44.2586 22.1155 44.7988 22.0696 45.3161 22.0201C46.0742 22.3082 46.9103 22.4679 47.789 22.4679C51.2277 22.4679 54.0153 20.0223 54.0153 17.0055C54.0153 13.9888 51.2277 11.5432 47.789 11.5432C47.7525 11.5432 47.716 11.5434 47.6796 11.544C46.7265 8.75508 44.523 6.80212 41.9569 6.80212C41.4959 6.80212 41.0466 6.86516 40.6141 6.98475C39.2698 3.56251 36.6341 1.23683 33.6026 1.23683C32.2518 1.23683 30.9796 1.69861 29.8652 2.51342C28.7069 0.940269 27.2391 0 25.6424 0C22.2851 0 19.498 4.15698 18.9587 9.61347C16.7056 10.4873 15.0814 12.9591 15.0814 15.8719C15.0814 19.5148 17.622 22.468 20.756 22.468C21.4771 22.468 22.1669 22.3116 22.8014 22.0265C23.6655 22.7068 24.6279 23.0863 25.6424 23.0863C26.5078 23.0863 27.3354 22.8101 28.0963 22.3066C28.9795 22.3517 29.8991 22.388 30.8481 22.4146C31.7065 22.8491 32.6344 23.0864 33.6026 23.0864C34.5372 23.0864 35.4341 22.8654 36.2671 22.4593Z" fill="#D9D9D9"/>
</g>
<g opacity="0.8" filter="url(#filter1_d_205_9)">
<path fill-rule="evenodd" clip-rule="evenodd" d="M53.6292 20.2842L50.0353 25.9418L51.3292 26.7714L54.9231 21.1138L53.6292 20.2842ZM32.1066 28.1388L35.7005 22.4812L36.9944 23.3109L33.4005 28.9685L32.1066 28.1388ZM15.9862 30.6013L19.4794 24.4474L20.8089 25.2179L17.3157 31.3718L15.9862 30.6013ZM10.6132 39.0581L14.2071 33.4005L15.501 34.2302L11.9071 39.8878L10.6132 39.0581ZM9.39129 41.7999L5.79739 47.4575L7.09131 48.2871L10.6852 42.6296L9.39129 41.7999ZM30.2919 30.9973L26.7987 37.1511L28.1282 37.9216L31.6214 31.7678L30.2919 30.9973ZM21.3249 45.1116L24.9188 39.4541L26.2128 40.2837L22.6189 45.9413L21.3249 45.1116ZM44.6444 34.4282L48.2383 28.7707L49.5322 29.6003L45.9383 35.2579L44.6444 34.4282ZM43.4226 37.1702L39.8287 42.8278L41.1226 43.6575L44.7165 37.9999L43.4226 37.1702Z" fill="#788FD6"/>
</g>
<g filter="url(#filter2_di_205_9)">
<path fill-rule="evenodd" clip-rule="evenodd" d="M48.2719 31.0266C49.8517 31.0133 51.3708 30.9799 52.8009 30.9292C53.177 30.9974 53.5651 31.0331 53.9618 31.0331C54.566 31.0331 55.1501 30.9503 55.7026 30.7959C56.2635 30.7637 56.8038 30.7286 57.3211 30.6907C58.0791 30.9111 58.9153 31.0332 59.794 31.0332C63.2327 31.0332 66.0203 29.163 66.0203 26.8561C66.0203 24.5491 63.2327 22.6789 59.794 22.6789C59.7574 22.6789 59.7209 22.6792 59.6845 22.6796C58.7314 20.5469 56.5279 19.0534 53.9618 19.0534C53.5008 19.0534 53.0515 19.1016 52.619 19.1931C51.2747 16.5761 48.639 14.7976 45.6075 14.7976C44.2567 14.7976 42.9845 15.1507 41.8701 15.7738C40.7118 14.5708 39.244 13.8518 37.6473 13.8518C34.2901 13.8518 31.5029 17.0306 30.9637 21.2032C28.7106 21.8714 27.0863 23.7616 27.0863 25.9891C27.0863 28.7748 29.6269 31.0331 32.7609 31.0331C33.482 31.0331 34.1717 30.9136 34.8063 30.6955C35.6704 31.2158 36.6328 31.5061 37.6473 31.5061C38.5127 31.5061 39.3403 31.2948 40.1012 30.9098C40.9844 30.9443 41.9041 30.972 42.8532 30.9924C43.7115 31.3246 44.6393 31.5061 45.6075 31.5061C46.542 31.5061 47.4389 31.3371 48.2719 31.0266Z" fill="#D9D9D9"/>
</g>
<g filter="url(#filter3_di_205_9)">
<path fill-rule="evenodd" clip-rule="evenodd" d="M20.5822 29.0739C21.8186 29.0606 23.0075 29.0275 24.1267 28.9771C24.4212 29.0449 24.725 29.0805 25.0357 29.0805C25.5087 29.0805 25.966 28.9981 26.3985 28.8446C26.8374 28.8126 27.2601 28.7777 27.6648 28.7401C28.2582 28.9591 28.9127 29.0805 29.6006 29.0805C32.2921 29.0805 34.4739 27.2219 34.4739 24.9291C34.4739 22.6363 32.2921 20.7777 29.6006 20.7777C29.572 20.7777 29.5434 20.7779 29.5149 20.7783C28.7689 18.6588 27.0442 17.1745 25.0357 17.1745C24.6748 17.1745 24.3232 17.2224 23.9847 17.3133C22.9325 14.7123 20.8695 12.9448 18.4967 12.9448C17.4394 12.9448 16.4436 13.2958 15.5713 13.915C14.6647 12.7195 13.5159 12.0049 12.2662 12.0049C9.63844 12.0049 7.45691 15.1641 7.03482 19.311C5.2713 19.9751 4 21.8537 4 24.0674C4 26.836 5.98855 29.0804 8.44155 29.0804C9.00594 29.0804 9.54574 28.9616 10.0424 28.7449C10.7187 29.262 11.4721 29.5505 12.2662 29.5505C12.9436 29.5505 13.5913 29.3405 14.1869 28.9578C14.8782 28.9921 15.598 29.0197 16.3408 29.0399C17.0126 29.3701 17.7388 29.5505 18.4967 29.5505C19.2282 29.5505 19.9302 29.3825 20.5822 29.0739Z" fill="#D9D9D9"/>
</g>
<defs>
<filter id="filter0_di_205_9" x="11.0814" y="0" width="46.9339" height="31.0864" filterUnits="userSpaceOnUse" color-interpolation-filters="sRGB">
<feFlood flood-opacity="0" result="BackgroundImageFix"/>
<feColorMatrix in="SourceAlpha" type="matrix" values="0 0 0 0 0 0 0 0 0 0 0 0 0 0 0 0 0 0 127 0" result="hardAlpha"/>
<feOffset dy="4"/>
<feGaussianBlur stdDeviation="2"/>
<feComposite in2="hardAlpha" operator="out"/>
<feColorMatrix type="matrix" values="0 0 0 0 0 0 0 0 0 0 0 0 0 0 0 0 0 0 0.25 0"/>
<feBlend mode="normal" in2="BackgroundImageFix" result="effect1_dropShadow_205_9"/>
<feBlend mode="normal" in="SourceGraphic" in2="effect1_dropShadow_205_9" result="shape"/>
<feColorMatrix in="SourceAlpha" type="matrix" values="0 0 0 0 0 0 0 0 0 0 0 0 0 0 0 0 0 0 127 0" result="hardAlpha"/>
<feOffset dy="1"/>
<feGaussianBlur stdDeviation="2"/>
<feComposite in2="hardAlpha" operator="arithmetic" k2="-1" k3="1"/>
<feColorMatrix type="matrix" values="0 0 0 0 0 0 0 0 0 0 0 0 0 0 0 0 0 0 0.25 0"/>
<feBlend mode="normal" in2="shape" result="effect2_innerShadow_205_9"/>
</filter>
<filter id="filter1_d_205_9" x="1.79739" y="20.2842" width="57.1257" height="36.0029" filterUnits="userSpaceOnUse" color-interpolation-filters="sRGB">
<feFlood flood-opacity="0" result="BackgroundImageFix"/>
<feColorMatrix in="SourceAlpha" type="matrix" values="0 0 0 0 0 0 0 0 0 0 0 0 0 0 0 0 0 0 127 0" result="hardAlpha"/>
<feOffset dy="4"/>
<feGaussianBlur stdDeviation="2"/>
<feComposite in2="hardAlpha" operator="out"/>
<feColorMatrix type="matrix" values="0 0 0 0 0 0 0 0 0 0 0 0 0 0 0 0 0 0 0.25 0"/>
<feBlend mode="normal" in2="BackgroundImageFix" result="effect1_dropShadow_205_9"/>
<feBlend mode="normal" in="SourceGraphic" in2="effect1_dropShadow_205_9" result="shape"/>
</filter>
<filter id="filter2_di_205_9" x="23.0863" y="13.8518" width="46.9339" height="25.6543" filterUnits="userSpaceOnUse" color-interpolation-filters="sRGB">
<feFlood flood-opacity="0" result="BackgroundImageFix"/>
<feColorMatrix in="SourceAlpha" type="matrix" values="0 0 0 0 0 0 0 0 0 0 0 0 0 0 0 0 0 0 127 0" result="hardAlpha"/>
<feOffset dy="4"/>
<feGaussianBlur stdDeviation="2"/>
<feComposite in2="hardAlpha" operator="out"/>
<feColorMatrix type="matrix" values="0 0 0 0 0 0 0 0 0 0 0 0 0 0 0 0 0 0 0.25 0"/>
<feBlend mode="normal" in2="BackgroundImageFix" result="effect1_dropShadow_205_9"/>
<feBlend mode="normal" in="SourceGraphic" in2="effect1_dropShadow_205_9" result="shape"/>
<feColorMatrix in="SourceAlpha" type="matrix" values="0 0 0 0 0 0 0 0 0 0 0 0 0 0 0 0 0 0 127 0" result="hardAlpha"/>
<feOffset dy="1"/>
<feGaussianBlur stdDeviation="2"/>
<feComposite in2="hardAlpha" operator="arithmetic" k2="-1" k3="1"/>
<feColorMatrix type="matrix" values="0 0 0 0 0 0 0 0 0 0 0 0 0 0 0 0 0 0 0.25 0"/>
<feBlend mode="normal" in2="shape" result="effect2_innerShadow_205_9"/>
</filter>
<filter id="filter3_di_205_9" x="0" y="12.0049" width="38.4739" height="25.5457" filterUnits="userSpaceOnUse" color-interpolation-filters="sRGB">
<feFlood flood-opacity="0" result="BackgroundImageFix"/>
<feColorMatrix in="SourceAlpha" type="matrix" values="0 0 0 0 0 0 0 0 0 0 0 0 0 0 0 0 0 0 127 0" result="hardAlpha"/>
<feOffset dy="4"/>
<feGaussianBlur stdDeviation="2"/>
<feComposite in2="hardAlpha" operator="out"/>
<feColorMatrix type="matrix" values="0 0 0 0 0 0 0 0 0 0 0 0 0 0 0 0 0 0 0.25 0"/>
<feBlend mode="normal" in2="BackgroundImageFix" result="effect1_dropShadow_205_9"/>
<feBlend mode="normal" in="SourceGraphic" in2="effect1_dropShadow_205_9" result="shape"/>
<feColorMatrix in="SourceAlpha" type="matrix" values="0 0 0 0 0 0 0 0 0 0 0 0 0 0 0 0 0 0 127 0" result="hardAlpha"/>
<feOffset dy="1"/>
<feGaussianBlur stdDeviation="2"/>
<feComposite in2="hardAlpha" operator="arithmetic" k2="-1" k3="1"/>
<feColorMatrix type="matrix" values="0 0 0 0 0 0 0 0 0 0 0 0 0 0 0 0 0 0 0.25 0"/>
<feBlend mode="normal" in2="shape" result="effect2_innerShadow_205_9"/>
</filter>
</defs>
</svg>
