<svg width="68" height="59" viewBox="0 0 68 59" fill="none" xmlns="http://www.w3.org/2000/svg">
<g opacity="0.5" filter="url(#filter0_d_205_8)">
<path d="M29 21L16 45" stroke="#788FD6" stroke-width="2"/>
</g>
<g filter="url(#filter1_di_205_8)">
<path fill-rule="evenodd" clip-rule="evenodd" d="M35.1981 21.7152C36.7255 21.6984 38.1942 21.6562 39.5769 21.592C39.9405 21.6783 40.3157 21.7234 40.6993 21.7234C41.2835 21.7234 41.8483 21.6187 42.3824 21.4235C42.9248 21.3828 43.4471 21.3384 43.9473 21.2906C44.6802 21.5691 45.4887 21.7235 46.3383 21.7235C49.663 21.7235 52.3582 19.359 52.3582 16.4421C52.3582 13.5253 49.663 11.1607 46.3383 11.1607C46.3029 11.1607 46.2676 11.161 46.2324 11.1615C45.3109 8.46501 43.1804 6.57676 40.6993 6.57676C40.2536 6.57676 39.8192 6.6377 39.401 6.75333C38.1012 3.44448 35.5529 1.19585 32.6219 1.19585C31.3158 1.19585 30.0857 1.64233 29.0083 2.43014C27.8883 0.909117 26.4692 0 24.9254 0C21.6793 0 18.9845 4.01925 18.4632 9.29496C16.2847 10.1398 14.7143 12.5298 14.7143 15.346C14.7143 18.8682 17.1707 21.7236 20.2009 21.7236C20.8981 21.7236 21.565 21.5724 22.1785 21.2967C23.014 21.9544 23.9445 22.3214 24.9254 22.3214C25.7621 22.3214 26.5622 22.0544 27.2979 21.5676C28.1519 21.6111 29.0411 21.6462 29.9586 21.672C30.7885 22.0921 31.6857 22.3215 32.6219 22.3215C33.5254 22.3215 34.3926 22.1078 35.1981 21.7152Z" fill="#D9D9D9"/>
</g>
<path opacity="0.5" d="M25 18L12 41" stroke="#788FD6" stroke-width="1.5"/>
<g opacity="0.8" filter="url(#filter2_d_205_8)">
<path d="M48 17L33 45" stroke="#788FD6" stroke-width="1.5"/>
</g>
<g opacity="0.8" filter="url(#filter3_d_205_8)">
<path d="M57 22L42 50" stroke="#788FD6" stroke-width="1.5"/>
</g>
<g filter="url(#filter4_di_205_8)">
<path fill-rule="evenodd" clip-rule="evenodd" d="M46.8051 29.9986C48.3325 29.9857 49.8013 29.9534 51.184 29.9044C51.5477 29.9704 51.9229 30.0049 52.3065 30.0049C52.8907 30.0049 53.4555 29.9248 53.9896 29.7755C54.5319 29.7444 55.0543 29.7104 55.5544 29.6739C56.2874 29.8869 57.0958 30.0049 57.9454 30.0049C61.2702 30.0049 63.9654 28.1968 63.9654 25.9662C63.9654 23.7357 61.2702 21.9275 57.9454 21.9275C57.9101 21.9275 57.8748 21.9277 57.8396 21.9281C56.9181 19.8661 54.7876 18.4221 52.3065 18.4221C51.8607 18.4221 51.4263 18.4687 51.0082 18.5571C49.7084 16.0268 47.1601 14.3073 44.229 14.3073C42.9229 14.3073 41.6929 14.6487 40.6154 15.2511C39.4955 14.088 38.0763 13.3928 36.5325 13.3928C33.2865 13.3928 30.5917 16.4663 30.0703 20.5007C27.8919 21.1468 26.3214 22.9743 26.3214 25.1279C26.3214 27.8214 28.7779 30.0049 31.808 30.0049C32.5052 30.0049 33.1721 29.8893 33.7856 29.6785C34.6211 30.1815 35.5516 30.4622 36.5325 30.4622C37.3693 30.4622 38.1694 30.2579 38.9051 29.8857C39.7591 29.919 40.6483 29.9458 41.5659 29.9655C42.3958 30.2868 43.2929 30.4622 44.229 30.4622C45.1325 30.4622 45.9997 30.2988 46.8051 29.9986Z" fill="#D9D9D9"/>
</g>
<path d="M40 8L26.2381 28.3609L33.7937 25.9527L23 45" stroke="#F8E329" stroke-opacity="0.79" stroke-width="3"/>
<g filter="url(#filter5_di_205_8)">
<path fill-rule="evenodd" clip-rule="evenodd" d="M20.0328 28.1107C21.2282 28.0979 22.3777 28.0658 23.4599 28.0171C23.7446 28.0827 24.0384 28.117 24.3387 28.117C24.7961 28.117 25.2382 28.0374 25.6564 27.8889C26.0807 27.858 26.4895 27.8243 26.8808 27.788C27.4545 27.9997 28.0873 28.1171 28.7524 28.1171C31.3547 28.1171 33.4643 26.32 33.4643 24.1032C33.4643 21.8864 31.3547 20.0893 28.7524 20.0893C28.7247 20.0893 28.6971 20.0895 28.6695 20.0899C27.9483 18.0406 26.2807 16.6055 24.3387 16.6055C23.9898 16.6055 23.6498 16.6518 23.3226 16.7397C22.3052 14.2249 20.3106 12.5159 18.0164 12.5159C16.9941 12.5159 16.0313 12.8553 15.188 13.454C14.3114 12.2981 13.2006 11.6072 11.9923 11.6072C9.45163 11.6072 7.34238 14.6617 6.93427 18.6712C5.22918 19.3133 4 21.1296 4 23.27C4 25.9469 5.92266 28.1169 8.29439 28.1169C8.84008 28.1169 9.362 28.0021 9.8422 27.7926C10.4961 28.2925 11.2245 28.5715 11.9923 28.5715C12.6473 28.5715 13.2736 28.3685 13.8494 27.9985C14.5178 28.0316 15.2137 28.0582 15.9319 28.0778C16.5815 28.3971 17.2836 28.5714 18.0164 28.5714C18.7236 28.5714 19.4024 28.409 20.0328 28.1107Z" fill="#D9D9D9"/>
</g>
<defs>
<filter id="filter0_d_205_8" x="11.1207" y="20.5237" width="22.7586" height="32.9526" filterUnits="userSpaceOnUse" color-interpolation-filters="sRGB">
<feFlood flood-opacity="0" result="BackgroundImageFix"/>
<feColorMatrix in="SourceAlpha" type="matrix" values="0 0 0 0 0 0 0 0 0 0 0 0 0 0 0 0 0 0 127 0" result="hardAlpha"/>
<feOffset dy="4"/>
<feGaussianBlur stdDeviation="2"/>
<feComposite in2="hardAlpha" operator="out"/>
<feColorMatrix type="matrix" values="0 0 0 0 0 0 0 0 0 0 0 0 0 0 0 0 0 0 0.25 0"/>
<feBlend mode="normal" in2="BackgroundImageFix" result="effect1_dropShadow_205_8"/>
<feBlend mode="normal" in="SourceGraphic" in2="effect1_dropShadow_205_8" result="shape"/>
</filter>
<filter id="filter1_di_205_8" x="10.7143" y="0" width="45.644" height="30.3215" filterUnits="userSpaceOnUse" color-interpolation-filters="sRGB">
<feFlood flood-opacity="0" result="BackgroundImageFix"/>
<feColorMatrix in="SourceAlpha" type="matrix" values="0 0 0 0 0 0 0 0 0 0 0 0 0 0 0 0 0 0 127 0" result="hardAlpha"/>
<feOffset dy="4"/>
<feGaussianBlur stdDeviation="2"/>
<feComposite in2="hardAlpha" operator="out"/>
<feColorMatrix type="matrix" values="0 0 0 0 0 0 0 0 0 0 0 0 0 0 0 0 0 0 0.25 0"/>
<feBlend mode="normal" in2="BackgroundImageFix" result="effect1_dropShadow_205_8"/>
<feBlend mode="normal" in="SourceGraphic" in2="effect1_dropShadow_205_8" result="shape"/>
<feColorMatrix in="SourceAlpha" type="matrix" values="0 0 0 0 0 0 0 0 0 0 0 0 0 0 0 0 0 0 127 0" result="hardAlpha"/>
<feOffset dy="1"/>
<feGaussianBlur stdDeviation="2"/>
<feComposite in2="hardAlpha" operator="arithmetic" k2="-1" k3="1"/>
<feColorMatrix type="matrix" values="0 0 0 0 0 0 0 0 0 0 0 0 0 0 0 0 0 0 0.25 0"/>
<feBlend mode="normal" in2="shape" result="effect2_innerShadow_205_8"/>
</filter>
<filter id="filter2_d_205_8" x="28.3389" y="16.6459" width="24.3222" height="36.7083" filterUnits="userSpaceOnUse" color-interpolation-filters="sRGB">
<feFlood flood-opacity="0" result="BackgroundImageFix"/>
<feColorMatrix in="SourceAlpha" type="matrix" values="0 0 0 0 0 0 0 0 0 0 0 0 0 0 0 0 0 0 127 0" result="hardAlpha"/>
<feOffset dy="4"/>
<feGaussianBlur stdDeviation="2"/>
<feComposite in2="hardAlpha" operator="out"/>
<feColorMatrix type="matrix" values="0 0 0 0 0 0 0 0 0 0 0 0 0 0 0 0 0 0 0.25 0"/>
<feBlend mode="normal" in2="BackgroundImageFix" result="effect1_dropShadow_205_8"/>
<feBlend mode="normal" in="SourceGraphic" in2="effect1_dropShadow_205_8" result="shape"/>
</filter>
<filter id="filter3_d_205_8" x="37.3389" y="21.6459" width="24.3222" height="36.7083" filterUnits="userSpaceOnUse" color-interpolation-filters="sRGB">
<feFlood flood-opacity="0" result="BackgroundImageFix"/>
<feColorMatrix in="SourceAlpha" type="matrix" values="0 0 0 0 0 0 0 0 0 0 0 0 0 0 0 0 0 0 127 0" result="hardAlpha"/>
<feOffset dy="4"/>
<feGaussianBlur stdDeviation="2"/>
<feComposite in2="hardAlpha" operator="out"/>
<feColorMatrix type="matrix" values="0 0 0 0 0 0 0 0 0 0 0 0 0 0 0 0 0 0 0.25 0"/>
<feBlend mode="normal" in2="BackgroundImageFix" result="effect1_dropShadow_205_8"/>
<feBlend mode="normal" in="SourceGraphic" in2="effect1_dropShadow_205_8" result="shape"/>
</filter>
<filter id="filter4_di_205_8" x="22.3214" y="13.3928" width="45.644" height="25.0693" filterUnits="userSpaceOnUse" color-interpolation-filters="sRGB">
<feFlood flood-opacity="0" result="BackgroundImageFix"/>
<feColorMatrix in="SourceAlpha" type="matrix" values="0 0 0 0 0 0 0 0 0 0 0 0 0 0 0 0 0 0 127 0" result="hardAlpha"/>
<feOffset dy="4"/>
<feGaussianBlur stdDeviation="2"/>
<feComposite in2="hardAlpha" operator="out"/>
<feColorMatrix type="matrix" values="0 0 0 0 0 0 0 0 0 0 0 0 0 0 0 0 0 0 0.25 0"/>
<feBlend mode="normal" in2="BackgroundImageFix" result="effect1_dropShadow_205_8"/>
<feBlend mode="normal" in="SourceGraphic" in2="effect1_dropShadow_205_8" result="shape"/>
<feColorMatrix in="SourceAlpha" type="matrix" values="0 0 0 0 0 0 0 0 0 0 0 0 0 0 0 0 0 0 127 0" result="hardAlpha"/>
<feOffset dy="1"/>
<feGaussianBlur stdDeviation="2"/>
<feComposite in2="hardAlpha" operator="arithmetic" k2="-1" k3="1"/>
<feColorMatrix type="matrix" values="0 0 0 0 0 0 0 0 0 0 0 0 0 0 0 0 0 0 0.25 0"/>
<feBlend mode="normal" in2="shape" result="effect2_innerShadow_205_8"/>
</filter>
<filter id="filter5_di_205_8" x="0" y="11.6072" width="37.4643" height="24.9642" filterUnits="userSpaceOnUse" color-interpolation-filters="sRGB">
<feFlood flood-opacity="0" result="BackgroundImageFix"/>
<feColorMatrix in="SourceAlpha" type="matrix" values="0 0 0 0 0 0 0 0 0 0 0 0 0 0 0 0 0 0 127 0" result="hardAlpha"/>
<feOffset dy="4"/>
<feGaussianBlur stdDeviation="2"/>
<feComposite in2="hardAlpha" operator="out"/>
<feColorMatrix type="matrix" values="0 0 0 0 0 0 0 0 0 0 0 0 0 0 0 0 0 0 0.25 0"/>
<feBlend mode="normal" in2="BackgroundImageFix" result="effect1_dropShadow_205_8"/>
<feBlend mode="normal" in="SourceGraphic" in2="effect1_dropShadow_205_8" result="shape"/>
<feColorMatrix in="SourceAlpha" type="matrix" values="0 0 0 0 0 0 0 0 0 0 0 0 0 0 0 0 0 0 127 0" result="hardAlpha"/>
<feOffset dy="1"/>
<feGaussianBlur stdDeviation="2"/>
<feComposite in2="hardAlpha" operator="arithmetic" k2="-1" k3="1"/>
<feColorMatrix type="matrix" values="0 0 0 0 0 0 0 0 0 0 0 0 0 0 0 0 0 0 0.25 0"/>
<feBlend mode="normal" in2="shape" result="effect2_innerShadow_205_8"/>
</filter>
</defs>
</svg>
